SplineFontDB: 3.0
FontName: DOF-1-Italic
FullName: DOF-1-Italic
FamilyName: DOF-1
Weight: Italic
Copyright: Generated from MetaFont bitmap by mftrace 1.2.18, http://www.xs4all.nl/~hanwen/mftrace/ 
Version: 001.001
ItalicAngle: -14
UnderlinePosition: -91
UnderlineWidth: 45
Ascent: 819
Descent: 205
InvalidEm: 0
LayerCount: 2
Layer: 0 0 "Back" 1
Layer: 1 0 "Fore" 0
StyleMap: 0x0000
FSType: 0
OS2Version: 0
OS2_WeightWidthSlopeOnly: 0
OS2_UseTypoMetrics: 0
CreationTime: 1493474307
ModificationTime: 1493475126
OS2TypoAscent: 0
OS2TypoAOffset: 1
OS2TypoDescent: 0
OS2TypoDOffset: 1
OS2TypoLinegap: 92
OS2WinAscent: 0
OS2WinAOffset: 1
OS2WinDescent: 0
OS2WinDOffset: 1
HheadAscent: 0
HheadAOffset: 1
HheadDescent: 0
HheadDOffset: 1
MarkAttachClasses: 1
DEI: 91125
Encoding: ISO8859-1
UnicodeInterp: none
NameList: AGL For New Fonts
DisplaySize: -72
AntiAlias: 1
FitToEm: 0
WinInfo: 17 17 7
BeginPrivate: 3
lenIV 1 4
BlueValues 2 []
ForceBold 5 false
EndPrivate
BeginChars: 260 96

StartChar: exclam
Encoding: 33 33 1
Width: 303
VWidth: 910
Flags: HW
LayerCount: 2
Fore
SplineSet
336 818 m 0
 344 819 365 818 374 816 c 0
 388 812 399 805 400 798 c 0
 401 797 373 684 324 488 c 0
 282 319 247 178 247 177 c 0
 244 171 233 165 221 162 c 0
 188 154 147 165 147 181 c 0
 147 185 300 799 301 802 c 0
 305 809 320 815 336 818 c 0
142 46 m 0
 150 47 172 46 181 44 c 0
 195 40 206 33 208 26 c 0
 210 16 199 8 180 3 c 0
 169 0 145 0 134 3 c 0
 115 8 104 15 106 26 c 0
 108 34 122 43 142 46 c 0
EndSplineSet
Validated: 33
EndChar

StartChar: quotedbl
Encoding: 34 34 2
Width: 303
VWidth: 910
Flags: HW
LayerCount: 2
Fore
SplineSet
265 818 m 0
 268 818 276 819 283 818 c 0
 297 818 307 817 317 812 c 0
 322 809 329 803 330 798 c 0
 330 796 327 779 315 733 c 2
 299 670 l 1
 296 665 l 2
 291 660 282 657 272 654 c 0
 267 653 262 653 248 653 c 0
 233 653 231 652 224 654 c 0
 214 658 210 660 205 664 c 0
 201 668 199 670 199 674 c 0
 199 679 230 801 232 804 c 0
 236 809 251 816 265 818 c 0
407 818 m 0
 415 819 436 818 445 816 c 0
 460 812 471 804 471 796 c 0
 471 795 464 766 456 731 c 2
 441 669 l 1
 437 664 l 2
 432 660 425 657 415 654 c 0
 410 652 406 653 391 653 c 0
 376 653 372 652 367 654 c 0
 352 658 342 666 340 672 c 0
 340 675 343 689 356 738 c 2
 371 801 l 1
 375 806 l 2
 380 811 392 815 407 818 c 0
EndSplineSet
Validated: 33
EndChar

StartChar: numbersign
Encoding: 35 35 3
Width: 607
VWidth: 910
Flags: HW
LayerCount: 2
Fore
SplineSet
405 613 m 0
 413 614 434 614 443 612 c 0
 457 608 466 602 470 594 c 0
 471 590 471 590 468 585 c 0
 467 581 448 547 426 507 c 2
 386 434 l 1
 449 433 l 2
 484 433 512 433 512 434 c 1
 513 434 533 471 558 516 c 0
 585 566 603 599 605 601 c 0
 609 606 617 609 628 612 c 0
 639 615 663 615 674 612 c 0
 684 609 694 604 698 599 c 0
 703 592 705 597 659 511 c 0
 636 469 617 434 617 434 c 2
 617 433 624 433 631 433 c 0
 660 432 679 423 679 411 c 0
 679 402 670 395 652 390 c 0
 646 388 642 388 618 387 c 2
 592 387 l 1
 549 308 l 2
 525 265 505 229 505 228 c 2
 505 228 512 228 519 228 c 0
 529 227 536 227 541 225 c 0
 569 218 576 200 554 189 c 0
 541 183 536 182 506 181 c 2
 479 181 l 1
 434 99 l 2
 403 42 389 16 387 14 c 0
 382 9 375 6 365 3 c 0
 354 0 330 0 319 3 c 0
 301 8 288 16 290 25 c 0
 291 27 359 154 372 177 c 2
 375 181 l 1
 311 181 l 1
 248 181 l 1
 203 98 l 2
 170 37 158 15 155 13 c 0
 151 9 142 6 134 3 c 0
 128 1 124 1 111 1 c 0
 93 1 84 2 74 7 c 0
 67 11 63 14 61 19 c 0
 59 22 59 23 60 25 c 0
 61 27 80 63 103 105 c 2
 144 181 l 1
 130 181 l 2
 109 182 95 187 86 194 c 0
 79 201 79 208 86 215 c 0
 91 220 98 222 108 225 c 0
 114 227 120 227 143 228 c 2
 169 228 l 1
 213 307 l 2
 237 351 256 386 256 387 c 2
 242 387 l 2
 216 388 200 394 195 406 c 0
 193 410 193 409 194 413 c 0
 198 421 206 427 220 431 c 0
 226 433 232 432 255 433 c 2
 281 434 l 1
 326 515 l 2
 351 560 371 598 373 600 c 0
 378 605 391 611 405 613 c 0
487 386 m 1
 487 387 459 387 424 387 c 2
 360 387 l 1
 359 383 l 2
 354 376 274 229 274 228 c 2
 337 228 l 1
 400 228 l 1
 443 307 l 2
 467 350 486 386 487 386 c 1
EndSplineSet
Validated: 33
EndChar

StartChar: dollar
Encoding: 36 36 4
Width: 546
VWidth: 910
Flags: HW
LayerCount: 2
Fore
SplineSet
458 818 m 0
 466 819 487 818 496 816 c 0
 511 812 520 805 522 798 c 0
 522 795 521 788 515 763 c 0
 510 746 507 731 507 731 c 1
 507 731 514 729 521 728 c 0
 576 720 618 700 633 673 c 0
 642 658 645 638 641 620 c 0
 639 611 629 605 614 600 c 0
 608 598 605 598 591 598 c 0
 577 598 573 598 567 600 c 0
 554 603 546 608 542 614 c 0
 540 617 540 617 541 628 c 0
 545 655 534 671 507 680 c 0
 502 682 498 683 497 683 c 0
 495 683 494 679 461 551 c 2
 429 420 l 1
 435 417 l 2
 448 412 472 398 482 392 c 0
 497 383 507 375 519 363 c 0
 535 347 546 329 551 309 c 0
 553 301 553 299 553 286 c 0
 553 269 551 259 545 241 c 0
 535 213 520 189 496 165 c 0
 459 128 413 102 358 91 c 0
 352 90 346 89 346 89 c 1
 346 89 343 74 338 55 c 0
 333 36 329 19 328 18 c 0
 325 12 315 7 301 3 c 0
 290 0 266 0 256 3 c 0
 241 7 230 14 228 20 c 0
 228 23 231 31 237 56 c 2
 245 89 l 1
 233 90 l 2
 227 91 216 93 211 95 c 0
 141 110 105 142 108 186 c 0
 109 204 113 210 124 215 c 0
 135 220 143 221 160 221 c 0
 174 221 178 221 184 219 c 0
 197 216 205 211 209 205 c 0
 211 202 211 202 210 191 c 0
 208 175 211 164 218 154 c 0
 224 147 237 140 251 137 c 2
 257 136 l 1
 289 267 l 2
 307 339 322 398 322 399 c 0
 322 400 321 400 316 402 c 0
 305 407 277 421 266 428 c 0
 237 445 214 468 203 490 c 0
 191 512 190 537 196 563 c 0
 210 614 246 661 299 693 c 0
 328 710 364 724 399 729 c 2
 405 730 l 1
 414 765 l 2
 422 800 422 801 426 806 c 0
 431 811 443 815 458 818 c 0
364 567 m 0
 378 623 390 669 390 670 c 1
 389 670 385 667 380 664 c 0
 342 641 313 607 299 570 c 0
 290 543 291 520 301 499 c 0
 306 488 318 476 331 466 c 0
 336 461 338 461 338 463 c 0
 339 464 350 511 364 567 c 0
423 349 m 0
 415 355 413 356 413 355 c 0
 411 350 362 153 362 152 c 1
 363 152 366 154 370 156 c 0
 406 179 434 214 446 252 c 0
 451 267 451 271 451 286 c 0
 451 296 452 300 450 306 c 0
 446 321 435 337 423 349 c 0
EndSplineSet
Validated: 33
EndChar

StartChar: percent
Encoding: 37 37 5
Width: 667
VWidth: 910
Flags: HW
LayerCount: 2
Fore
SplineSet
354 824 m 0
 360 826 383 824 389 822 c 0
 407 817 416 810 416 802 c 0
 416 795 411 790 399 785 c 0
 396 783 387 779 382 776 c 0
 340 756 306 713 296 667 c 0
 295 662 295 655 295 645 c 0
 295 629 296 622 302 610 c 0
 306 603 314 593 317 593 c 0
 320 593 333 599 338 603 c 0
 356 617 371 639 376 660 c 0
 379 670 379 689 377 698 c 0
 375 703 375 703 377 707 c 0
 380 714 387 720 402 724 c 0
 409 726 413 725 426 725 c 0
 438 725 442 726 448 724 c 0
 464 720 474 714 476 705 c 0
 481 691 481 671 477 655 c 0
 467 617 436 581 395 563 c 0
 353 543 300 539 258 554 c 0
 215 569 191 604 193 650 c 0
 194 671 199 690 209 712 c 0
 228 751 263 785 305 806 c 0
 324 816 339 822 354 824 c 0
771 818 m 0
 779 819 800 818 808 816 c 0
 821 812 830 808 834 803 c 0
 837 799 837 793 834 790 c 0
 833 787 290 188 150 34 c 0
 127 8 125 7 109 3 c 0
 98 0 74 0 64 3 c 0
 50 7 42 11 38 16 c 0
 35 20 35 26 38 30 c 0
 39 32 582 631 722 786 c 0
 741 806 743 809 748 812 c 0
 754 815 762 816 771 818 c 0
542 273 m 0
 548 274 569 274 579 273 c 0
 628 267 661 244 674 208 c 0
 686 172 677 128 650 86 c 0
 625 49 589 20 545 3 c 0
 529 -3 522 -6 505 -5 c 0
 492 -5 488 -5 483 -3 c 0
 465 2 456 9 456 18 c 0
 456 24 461 30 473 35 c 0
 476 37 485 40 490 43 c 0
 532 63 566 106 576 152 c 0
 577 157 577 164 577 174 c 0
 577 190 576 197 570 209 c 0
 566 216 558 227 555 227 c 0
 552 227 539 220 534 216 c 0
 516 202 501 180 496 159 c 0
 493 149 493 130 495 121 c 0
 497 116 497 116 495 112 c 0
 492 105 485 100 470 96 c 0
 463 94 459 94 447 94 c 0
 430 94 421 95 410 100 c 0
 399 105 395 111 393 127 c 0
 387 171 415 220 461 248 c 0
 481 260 507 269 530 272 c 0
 535 273 540 273 542 273 c 0
EndSplineSet
Validated: 33
EndChar

StartChar: ampersand
Encoding: 38 38 6
Width: 546
VWidth: 910
Flags: HW
LayerCount: 2
Fore
SplineSet
456 824 m 0
 464 825 484 825 494 824 c 0
 522 821 551 811 569 797 c 0
 603 772 619 729 617 673 c 0
 616 647 610 618 603 595 c 0
 596 572 581 547 563 524 c 0
 553 511 527 485 512 473 c 0
 482 448 457 431 403 399 c 0
 383 387 365 376 362 374 c 2
 358 371 l 1
 360 366 l 1
 368 329 385 273 401 233 c 0
 412 207 430 165 432 165 c 0
 433 165 441 182 445 193 c 0
 447 198 450 207 452 213 c 0
 456 227 458 228 463 233 c 0
 488 249 546 244 554 224 c 0
 556 220 556 219 554 211 c 0
 542 169 521 129 490 93 c 2
 482 84 l 1
 489 75 l 2
 498 63 515 46 524 39 c 0
 528 36 532 33 533 31 c 0
 542 20 532 8 509 3 c 0
 503 1 499 1 486 1 c 0
 469 1 461 2 451 7 c 0
 445 10 432 19 423 27 c 2
 418 33 l 1
 404 25 l 2
 374 10 344 0 309 -4 c 0
 294 -6 258 -6 245 -4 c 0
 183 5 141 35 121 86 c 0
 107 119 104 159 111 201 c 0
 117 239 130 268 155 299 c 0
 164 310 186 333 200 344 c 0
 211 353 234 371 245 378 c 0
 250 382 253 384 253 385 c 0
 253 386 252 389 252 392 c 0
 247 412 241 455 238 484 c 0
 236 504 236 558 238 573 c 0
 243 619 256 663 280 703 c 0
 286 714 300 733 308 743 c 0
 316 754 338 775 349 783 c 0
 380 807 416 820 456 824 c 0
478 776 m 0
 473 778 472 778 466 776 c 0
 447 770 420 750 402 726 c 0
 372 690 349 639 341 592 c 0
 335 556 336 505 343 451 c 2
 345 440 l 1
 358 448 l 2
 430 494 472 536 495 582 c 0
 504 600 508 618 513 645 c 0
 516 664 516 698 513 713 c 0
 508 744 494 767 478 776 c 0
278 294 m 0
 276 300 273 307 273 307 c 2
 272 308 257 291 247 279 c 0
 226 252 215 226 210 187 c 0
 208 174 208 141 210 129 c 0
 217 88 236 59 262 46 c 0
 271 41 277 40 289 42 c 0
 302 45 312 49 327 56 c 0
 341 63 357 74 368 83 c 2
 372 87 l 1
 365 98 l 2
 350 121 333 156 319 186 c 0
 305 216 287 264 278 294 c 0
EndSplineSet
Validated: 33
EndChar

StartChar: parenleft
Encoding: 40 40 7
Width: 212
VWidth: 910
Flags: HW
LayerCount: 2
Fore
SplineSet
318 847 m 0
 329 850 352 850 362 847 c 0
 378 842 389 835 389 826 c 0
 389 825 386 818 382 812 c 0
 315 675 261 523 227 380 c 0
 197 253 182 132 180 1 c 2
 180 -12 l 1
 177 -15 l 2
 173 -19 164 -24 154 -27 c 0
 149 -29 145 -29 130 -29 c 0
 115 -29 111 -29 106 -27 c 0
 93 -23 84 -18 80 -13 c 0
 77 -8 80 63 85 123 c 0
 103 345 165 572 270 795 c 0
 283 821 290 833 293 836 c 0
 298 841 306 844 318 847 c 0
EndSplineSet
Validated: 33
EndChar

StartChar: parenright
Encoding: 41 41 8
Width: 212
VWidth: 910
Flags: HW
LayerCount: 2
Fore
SplineSet
269 847 m 0
 279 850 302 850 311 847 c 0
 324 843 333 837 337 832 c 0
 340 827 337 756 332 696 c 0
 314 474 252 248 147 25 c 0
 127 -16 126 -18 116 -23 c 0
 105 -28 97 -29 79 -29 c 0
 64 -29 61 -29 55 -27 c 0
 47 -25 40 -22 35 -18 c 0
 32 -15 28 -10 28 -6 c 0
 28 -5 31 1 35 7 c 0
 102 144 156 297 190 440 c 0
 220 567 235 686 237 818 c 0
 237 830 237 831 239 834 c 0
 244 840 256 845 269 847 c 0
EndSplineSet
Validated: 33
EndChar

StartChar: asterisk
Encoding: 42 42 9
Width: 485
VWidth: 910
Flags: HW
LayerCount: 2
Fore
SplineSet
427 818 m 0
 435 819 456 818 465 816 c 0
 479 812 491 805 492 798 c 0
 493 796 488 781 482 756 c 0
 477 734 472 717 473 717 c 2
 473 717 483 723 496 729 c 0
 525 744 531 745 551 745 c 0
 566 745 572 744 583 740 c 0
 589 737 594 735 598 731 c 0
 602 726 602 724 602 719 c 0
 600 713 598 711 531 677 c 2
 469 646 l 1
 512 616 l 2
 537 600 558 586 559 584 c 0
 567 577 566 568 556 562 c 0
 546 555 533 552 514 552 c 0
 490 552 483 555 457 572 c 2
 440 583 l 1
 428 540 l 2
 423 515 417 494 416 493 c 0
 412 488 403 484 390 480 c 0
 380 477 356 477 345 480 c 0
 330 484 319 491 318 498 c 0
 317 500 320 513 327 539 c 0
 332 560 336 577 336 578 c 0
 336 579 326 573 313 567 c 0
 284 552 279 552 259 552 c 0
 244 552 237 552 226 556 c 0
 220 559 215 561 211 565 c 0
 207 570 208 572 208 577 c 0
 210 583 212 585 279 619 c 2
 340 650 l 1
 297 680 l 2
 272 696 251 710 250 712 c 0
 242 719 243 729 253 735 c 0
 263 742 276 745 295 745 c 0
 319 745 326 741 351 725 c 0
 361 719 369 714 370 714 c 2
 370 714 375 732 380 755 c 0
 385 778 391 798 392 800 c 0
 395 808 409 815 427 818 c 0
EndSplineSet
Validated: 33
EndChar

StartChar: plus
Encoding: 43 43 10
Width: 607
VWidth: 910
Flags: HW
LayerCount: 2
Fore
SplineSet
437 613 m 0
 445 614 466 614 474 612 c 0
 492 607 502 600 502 592 c 0
 502 589 487 530 470 459 c 2
 437 330 l 1
 528 330 l 2
 619 329 620 330 626 328 c 0
 644 323 654 316 654 308 c 0
 654 299 644 292 626 287 c 2
 620 285 l 1
 522 284 l 1
 425 284 l 1
 393 153 l 2
 375 81 360 21 359 19 c 0
 356 13 347 7 333 3 c 0
 322 0 298 0 287 3 c 0
 272 7 260 14 259 21 c 0
 258 23 269 68 291 154 c 2
 324 284 l 1
 233 284 l 2
 142 285 141 285 135 287 c 0
 117 292 107 299 107 308 c 0
 107 316 117 323 135 328 c 2
 142 330 l 1
 238 330 l 1
 336 330 l 1
 369 463 l 1
 402 596 l 1
 405 600 l 2
 410 606 422 610 437 613 c 0
EndSplineSet
Validated: 33
EndChar

StartChar: comma
Encoding: 44 44 11
Width: 182
VWidth: 910
Flags: HW
LayerCount: 2
Fore
SplineSet
82 46 m 0
 85 46 93 47 100 46 c 0
 119 46 133 41 141 34 c 0
 147 29 149 25 146 15 c 0
 137 -20 120 -56 95 -91 c 0
 85 -106 80 -110 74 -114 c 0
 62 -119 55 -120 36 -120 c 0
 21 -120 18 -120 12 -118 c 0
 4 -116 -3 -113 -8 -109 c 0
 -12 -105 -16 -100 -15 -96 c 0
 -14 -95 -10 -88 -5 -82 c 0
 18 -50 35 -18 45 17 c 0
 47 23 48 29 49 31 c 0
 53 36 68 44 82 46 c 0
EndSplineSet
Validated: 1
EndChar

StartChar: hyphen
Encoding: 45 45 12
Width: 607
VWidth: 910
Flags: HW
LayerCount: 2
Fore
SplineSet
143 330 m 0
 146 330 253 330 384 330 c 2
 620 330 l 1
 626 328 l 2
 644 323 654 316 654 307 c 0
 654 299 643 291 624 286 c 0
 619 285 600 285 380 285 c 2
 143 285 l 1
 135 287 l 2
 117 292 107 299 107 307 c 0
 107 313 111 318 120 322 c 0
 125 325 136 329 143 330 c 0
EndSplineSet
Validated: 1
EndChar

StartChar: period
Encoding: 46 46 13
Width: 182
VWidth: 910
Flags: HW
LayerCount: 2
Fore
SplineSet
79 54 m 0
 101 58 128 54 143 46 c 0
 164 36 164 19 143 9 c 0
 106 -9 37 2 37 27 c 0
 37 40 54 50 79 54 c 0
EndSplineSet
Validated: 33
EndChar

StartChar: slash
Encoding: 47 47 14
Width: 303
VWidth: 910
Flags: HW
LayerCount: 2
Fore
SplineSet
407 818 m 0
 415 819 436 818 444 816 c 0
 462 811 471 804 471 796 c 0
 471 793 430 696 304 407 c 0
 212 195 137 20 136 18 c 0
 132 11 123 7 109 3 c 0
 98 0 74 0 64 3 c 0
 46 8 36 15 36 23 c 0
 36 26 78 123 204 412 c 0
 296 624 371 799 372 801 c 0
 377 809 389 815 407 818 c 0
EndSplineSet
Validated: 33
EndChar

StartChar: zero
Encoding: 48 48 15
Width: 546
VWidth: 910
Flags: HW
LayerCount: 2
Fore
SplineSet
454 824 m 0
 463 825 499 824 511 822 c 0
 572 813 609 784 625 734 c 0
 640 687 638 616 617 514 c 0
 604 450 580 351 562 292 c 0
 522 160 477 82 417 37 c 0
 409 31 390 20 379 15 c 0
 359 6 338 0 313 -4 c 0
 296 -6 257 -6 241 -3 c 0
 179 6 142 36 126 86 c 0
 111 133 113 203 134 306 c 0
 147 369 171 468 189 527 c 0
 229 659 274 737 334 782 c 0
 342 788 361 799 372 804 c 0
 396 815 421 821 454 824 c 0
489 776 m 0
 479 781 464 779 449 774 c 0
 393 752 343 681 303 563 c 0
 286 515 262 427 244 346 c 0
 212 208 208 125 232 77 c 0
 247 44 270 35 301 46 c 0
 357 67 408 138 448 257 c 0
 465 305 489 392 507 474 c 0
 539 611 543 694 519 743 c 0
 511 759 502 770 489 776 c 0
EndSplineSet
Validated: 33
EndChar

StartChar: one
Encoding: 49 49 16
Width: 379
VWidth: 910
Flags: HW
LayerCount: 2
Fore
SplineSet
453 818 m 0
 461 819 483 818 492 816 c 0
 507 812 516 805 518 798 c 0
 518 795 502 732 423 416 c 0
 371 208 330 37 330 37 c 2
 332 37 338 31 340 27 c 0
 341 22 341 23 339 19 c 0
 338 16 336 14 334 13 c 0
 330 9 321 5 312 3 c 0
 305 1 302 1 275 1 c 0
 247 1 244 1 237 3 c 0
 217 8 206 16 209 26 c 0
 210 31 217 36 223 39 c 2
 228 42 l 1
 310 370 l 2
 355 550 392 698 392 698 c 1
 392 698 364 677 329 652 c 0
 294 627 263 605 260 603 c 0
 249 598 241 597 225 597 c 0
 207 596 199 598 188 603 c 0
 177 608 171 616 173 623 c 0
 174 624 175 626 177 629 c 0
 182 634 426 810 432 813 c 0
 437 815 445 817 453 818 c 0
EndSplineSet
Validated: 33
EndChar

StartChar: two
Encoding: 50 50 17
Width: 546
VWidth: 910
Flags: HW
LayerCount: 2
Fore
SplineSet
454 824 m 0
 462 825 487 825 497 824 c 0
 590 816 650 765 654 695 c 0
 655 675 652 655 642 627 c 0
 631 594 616 565 594 533 c 0
 569 495 542 462 496 416 c 0
 468 389 457 378 408 334 c 0
 355 286 337 269 312 244 c 0
 253 185 218 139 193 88 c 0
 187 76 175 49 175 47 c 0
 175 46 239 46 316 46 c 2
 457 46 l 1
 464 44 l 2
 489 38 498 25 485 13 c 0
 480 8 474 6 464 3 c 2
 457 1 l 1
 284 0 l 2
 162 0 108 0 103 1 c 0
 88 3 72 10 68 17 c 0
 65 22 66 25 71 40 c 0
 81 75 99 113 123 148 c 0
 148 186 175 218 220 263 c 0
 248 291 265 307 319 356 c 0
 338 373 360 393 368 400 c 0
 465 491 517 561 542 634 c 0
 551 660 554 677 553 695 c 0
 550 735 523 769 486 777 c 0
 454 783 404 762 369 728 c 0
 349 707 334 684 327 660 c 0
 326 656 325 652 324 651 c 0
 322 648 316 644 311 641 c 0
 299 636 294 634 275 635 c 0
 259 635 256 635 249 637 c 0
 234 642 227 648 225 655 c 0
 224 661 234 689 244 705 c 0
 253 720 263 732 277 747 c 0
 296 765 316 780 341 793 c 0
 375 810 412 821 454 824 c 0
EndSplineSet
Validated: 33
EndChar

StartChar: three
Encoding: 51 51 18
Width: 546
VWidth: 910
Flags: HW
LayerCount: 2
Fore
SplineSet
451 824 m 0
 460 825 498 824 508 823 c 0
 527 820 550 813 566 806 c 0
 607 786 635 748 645 701 c 0
 660 635 637 555 585 491 c 0
 575 478 554 455 541 445 c 0
 526 432 505 419 489 412 c 0
 484 410 480 408 480 408 c 1
 480 408 481 406 484 404 c 0
 487 402 492 399 497 396 c 0
 522 375 540 344 547 309 c 0
 568 212 510 92 415 34 c 0
 360 0 295 -13 228 -1 c 0
 177 7 136 27 106 59 c 0
 97 69 86 82 84 87 c 0
 82 94 87 102 98 107 c 0
 116 115 151 115 169 107 c 0
 176 103 179 102 187 91 c 0
 203 69 226 53 248 46 c 0
 273 39 293 40 320 54 c 0
 384 86 437 163 448 239 c 0
 453 274 449 313 436 338 c 0
 425 360 406 378 389 384 c 0
 385 385 379 386 372 387 c 0
 352 389 338 393 331 400 c 0
 323 407 323 414 331 421 c 0
 338 428 352 431 373 433 c 0
 388 434 390 435 402 439 c 0
 438 452 478 485 505 527 c 0
 546 587 559 660 540 715 c 0
 535 732 525 746 514 758 c 0
 505 766 495 772 486 776 c 0
 479 778 478 778 469 778 c 0
 429 776 379 754 341 720 c 0
 329 710 315 705 293 705 c 0
 271 705 256 710 247 719 c 0
 243 723 243 723 243 728 c 0
 243 733 245 737 254 744 c 0
 310 791 375 818 451 824 c 0
EndSplineSet
Validated: 33
EndChar

StartChar: four
Encoding: 52 52 19
Width: 500
VWidth: 910
Flags: HW
LayerCount: 2
Fore
SplineSet
310 818 m 0
 318 819 340 818 349 816 c 0
 364 812 374 805 376 798 c 0
 376 795 368 773 329 661 c 0
 304 587 281 526 280 525 c 0
 280 523 282 523 320 523 c 2
 360 524 l 1
 370 561 l 2
 380 597 379 597 382 601 c 0
 387 606 395 609 406 612 c 0
 416 615 441 615 450 613 c 0
 468 608 479 600 479 592 c 0
 479 590 465 534 462 525 c 0
 462 523 466 523 512 523 c 0
 560 522 562 523 568 521 c 0
 586 516 595 509 595 501 c 0
 595 492 586 485 568 480 c 0
 562 478 560 478 506 477 c 2
 451 477 l 1
 393 248 l 2
 361 120 336 18 335 16 c 0
 331 11 323 7 309 3 c 0
 299 0 275 0 264 3 c 0
 254 6 246 8 241 13 c 0
 234 20 228 -4 292 249 c 0
 323 373 349 475 349 476 c 0
 349 477 323 477 277 477 c 0
 207 478 205 478 198 480 c 0
 183 484 172 491 170 498 c 0
 170 501 179 527 223 652 c 0
 273 795 276 803 279 806 c 0
 284 811 296 816 310 818 c 0
EndSplineSet
Validated: 33
EndChar

StartChar: five
Encoding: 53 53 20
Width: 546
VWidth: 910
Flags: HW
LayerCount: 2
Fore
SplineSet
296 818 m 0
 299 818 380 819 476 819 c 2
 651 818 l 1
 658 816 l 2
 667 813 675 811 680 806 c 0
 691 795 682 782 658 776 c 2
 651 774 l 1
 502 773 l 1
 355 773 l 1
 354 769 l 2
 349 752 312 602 312 602 c 2
 313 602 316 602 321 604 c 0
 355 614 384 619 421 619 c 0
 447 619 459 618 478 613 c 0
 525 600 557 575 572 532 c 0
 590 484 590 417 574 337 c 0
 559 260 530 183 495 127 c 0
 447 49 387 7 311 -4 c 0
 296 -6 270 -6 255 -5 c 0
 191 0 141 22 106 59 c 0
 97 69 86 82 84 87 c 0
 82 94 87 102 98 107 c 0
 116 115 151 115 169 107 c 0
 176 103 179 102 187 91 c 0
 203 69 226 52 249 46 c 0
 274 39 291 40 314 53 c 0
 379 88 436 185 467 311 c 0
 480 359 484 398 484 441 c 0
 484 470 484 481 479 501 c 0
 472 536 455 561 435 570 c 0
 430 573 429 573 418 573 c 0
 404 573 392 570 376 565 c 0
 346 555 318 540 291 516 c 0
 276 505 268 502 245 501 c 0
 234 501 228 501 223 502 c 0
 207 506 196 512 193 519 c 2
 191 523 l 1
 226 661 l 2
 244 737 260 800 261 801 c 0
 265 809 279 815 296 818 c 0
EndSplineSet
Validated: 33
EndChar

StartChar: six
Encoding: 54 54 21
Width: 546
VWidth: 910
Flags: HW
LayerCount: 2
Fore
SplineSet
492 829 m 0
 500 830 520 830 530 829 c 0
 579 824 617 804 635 771 c 0
 640 763 645 746 645 740 c 0
 645 735 646 736 642 731 c 0
 633 722 617 717 595 717 c 0
 577 717 564 720 553 727 c 0
 548 731 546 733 543 743 c 0
 538 760 529 775 516 781 c 0
 510 785 508 785 499 781 c 0
 455 767 408 724 367 658 c 0
 354 638 337 606 338 605 c 2
 338 605 341 606 345 608 c 0
 356 612 376 616 389 618 c 0
 397 619 406 619 422 619 c 0
 447 619 459 618 478 613 c 0
 525 600 557 575 572 532 c 0
 590 484 590 417 574 337 c 0
 559 260 530 183 495 127 c 0
 479 101 465 84 446 65 c 0
 412 31 379 12 334 1 c 0
 315 -4 303 -5 278 -5 c 0
 253 -5 241 -4 222 1 c 0
 175 14 143 40 128 83 c 0
 110 130 110 197 125 276 c 0
 135 324 157 403 177 465 c 0
 235 637 304 745 389 796 c 0
 421 814 456 826 492 829 c 0
436 570 m 0
 426 575 414 574 397 567 c 0
 370 556 338 528 313 492 c 0
 265 424 228 317 217 216 c 0
 215 195 215 151 217 136 c 0
 220 121 222 106 227 95 c 0
 237 64 257 43 276 41 c 0
 287 40 303 46 318 55 c 0
 381 93 437 188 467 311 c 0
 480 359 484 398 484 441 c 0
 484 470 484 481 479 501 c 0
 472 536 456 560 436 570 c 0
EndSplineSet
Validated: 33
EndChar

StartChar: seven
Encoding: 55 55 22
Width: 485
VWidth: 910
Flags: HW
LayerCount: 2
Fore
SplineSet
265 818 m 0
 268 818 349 819 445 819 c 2
 620 818 l 1
 626 816 l 2
 651 810 658 800 651 787 c 0
 631 754 165 16 162 14 c 0
 156 7 140 1 122 0 c 0
 104 -1 87 3 76 10 c 0
 69 15 66 20 66 25 c 0
 67 28 111 97 301 400 c 2
 536 773 l 1
 400 773 l 1
 264 774 l 1
 257 776 l 2
 239 781 229 787 229 796 c 0
 229 805 244 815 265 818 c 0
EndSplineSet
Validated: 33
EndChar

StartChar: eight
Encoding: 56 56 23
Width: 546
VWidth: 910
Flags: HW
LayerCount: 2
Fore
SplineSet
453 824 m 0
 464 825 487 825 498 824 c 0
 532 820 558 811 583 795 c 0
 599 784 618 763 627 745 c 0
 633 731 639 713 643 694 c 0
 645 683 645 650 643 638 c 0
 636 584 616 547 578 509 c 0
 554 485 530 468 492 444 c 0
 479 437 464 428 457 424 c 0
 451 420 445 418 445 417 c 2
 445 417 451 413 457 408 c 0
 507 369 535 331 546 291 c 0
 554 257 550 223 533 180 c 0
 518 139 495 105 465 74 c 0
 443 53 426 39 401 25 c 0
 341 -9 260 -15 199 8 c 0
 135 32 100 90 103 168 c 0
 105 209 115 246 134 278 c 0
 152 307 182 337 221 364 c 0
 240 378 293 409 313 419 c 0
 316 420 318 421 318 421 c 1
 318 421 315 424 311 426 c 0
 300 434 279 451 268 462 c 0
 237 491 218 521 212 553 c 0
 210 561 210 565 210 579 c 0
 210 594 210 597 212 607 c 0
 219 639 233 672 253 702 c 0
 265 720 275 732 291 748 c 0
 320 777 351 796 387 810 c 0
 404 816 434 823 453 824 c 0
490 774 m 0
 483 778 480 777 474 778 c 0
 445 779 397 749 364 708 c 0
 333 670 312 619 310 583 c 0
 308 541 331 503 379 465 c 2
 387 458 l 1
 397 463 l 2
 412 472 430 483 442 492 c 0
 499 532 529 572 539 625 c 0
 553 692 533 753 490 774 c 0
388 370 m 0
 381 375 375 380 375 380 c 1
 375 380 368 376 359 371 c 0
 313 346 285 326 262 303 c 0
 224 265 207 224 204 168 c 0
 202 118 219 74 248 53 c 0
 265 40 279 38 302 46 c 0
 338 58 378 92 406 134 c 0
 431 170 448 216 450 249 c 0
 452 293 432 331 388 370 c 0
EndSplineSet
Validated: 33
EndChar

StartChar: nine
Encoding: 57 57 24
Width: 546
VWidth: 910
Flags: HW
LayerCount: 2
Fore
SplineSet
454 824 m 0
 456 825 466 825 477 825 c 0
 499 824 512 822 529 818 c 0
 576 805 608 779 623 736 c 0
 641 689 641 622 626 544 c 0
 616 495 594 416 574 355 c 0
 506 152 423 38 317 2 c 0
 293 -6 274 -10 249 -11 c 0
 187 -13 138 9 116 48 c 0
 111 56 106 73 106 79 c 0
 106 84 105 83 109 88 c 0
 118 97 134 102 156 102 c 0
 174 102 187 99 198 92 c 0
 203 88 205 86 208 76 c 0
 213 59 222 44 235 38 c 0
 241 34 243 34 252 38 c 0
 296 52 343 95 384 161 c 0
 397 181 414 213 413 214 c 2
 413 214 410 213 406 211 c 0
 395 207 375 203 362 201 c 0
 354 200 345 200 329 200 c 0
 304 200 292 201 273 206 c 0
 226 219 194 245 179 288 c 0
 161 336 161 402 177 482 c 0
 192 559 221 636 256 692 c 0
 272 718 286 736 305 755 c 0
 339 789 372 807 417 818 c 0
 426 820 433 822 454 824 c 0
487 775 m 0
 477 780 465 779 448 772 c 0
 421 761 389 732 364 696 c 0
 316 628 279 522 268 421 c 0
 266 400 266 355 268 340 c 0
 271 325 273 310 278 299 c 0
 288 268 308 248 327 246 c 0
 338 245 354 250 369 259 c 0
 432 297 488 393 518 516 c 0
 531 564 535 602 535 645 c 0
 535 674 535 685 530 705 c 0
 523 740 507 765 487 775 c 0
EndSplineSet
Validated: 33
EndChar

StartChar: colon
Encoding: 58 58 25
Width: 182
VWidth: 910
Flags: HW
LayerCount: 2
Fore
SplineSet
219 613 m 0
 241 617 268 613 283 605 c 0
 308 592 302 572 271 563 c 0
 236 553 188 562 179 580 c 0
 172 595 188 608 219 613 c 0
79 54 m 0
 101 58 128 54 143 46 c 0
 164 36 164 19 143 9 c 0
 106 -9 37 2 37 27 c 0
 37 40 54 50 79 54 c 0
EndSplineSet
Validated: 33
EndChar

StartChar: semicolon
Encoding: 59 59 26
Width: 182
VWidth: 910
Flags: HW
LayerCount: 2
Fore
SplineSet
220 617 m 0
 242 621 269 618 284 610 c 0
 309 597 303 577 272 568 c 0
 237 558 189 566 180 584 c 0
 173 599 189 612 220 617 c 0
82 46 m 0
 85 46 93 47 100 46 c 0
 119 46 133 41 141 34 c 0
 147 29 149 25 146 15 c 0
 137 -20 120 -56 95 -91 c 0
 85 -106 80 -110 74 -114 c 0
 62 -119 55 -120 36 -120 c 0
 21 -120 18 -120 12 -118 c 0
 4 -116 -3 -113 -8 -109 c 0
 -12 -105 -16 -100 -15 -96 c 0
 -14 -95 -10 -88 -5 -82 c 0
 18 -50 35 -18 45 17 c 0
 47 23 48 29 49 31 c 0
 53 36 68 44 82 46 c 0
EndSplineSet
Validated: 33
EndChar

StartChar: less
Encoding: 60 60 27
Width: 607
VWidth: 910
Flags: HW
LayerCount: 2
Fore
SplineSet
663 613 m 0
 664 614 671 614 678 613 c 0
 695 613 709 610 717 603 c 0
 726 597 726 586 718 580 c 0
 716 578 604 516 468 441 c 0
 331 366 220 305 220 305 c 2
 220 304 244 287 272 265 c 0
 553 52 579 33 581 30 c 0
 586 21 579 10 564 5 c 0
 553 1 547 1 532 1 c 0
 515 1 506 2 496 7 c 0
 488 11 112 296 109 300 c 0
 105 305 108 314 114 319 c 0
 119 323 637 607 642 609 c 0
 646 611 657 612 663 613 c 0
EndSplineSet
Validated: 1
EndChar

StartChar: equal
Encoding: 61 61 28
Width: 607
VWidth: 910
Flags: HW
LayerCount: 2
Fore
SplineSet
168 432 m 0
 171 432 280 433 410 433 c 2
 645 433 l 1
 653 431 l 2
 688 421 688 399 652 390 c 2
 644 388 l 1
 406 388 l 1
 168 388 l 1
 160 390 l 2
 143 395 133 402 133 410 c 0
 133 420 147 429 168 432 c 0
117 228 m 0
 120 228 229 228 359 228 c 2
 594 228 l 1
 602 226 l 2
 611 223 619 220 624 215 c 0
 635 204 626 191 601 185 c 2
 593 183 l 1
 355 183 l 1
 117 183 l 1
 109 185 l 2
 100 187 91 191 87 195 c 0
 85 196 84 198 83 201 c 0
 81 205 81 204 82 208 c 0
 86 217 98 225 117 228 c 0
EndSplineSet
Validated: 33
EndChar

StartChar: greater
Encoding: 62 62 29
Width: 607
VWidth: 910
Flags: HW
LayerCount: 2
Fore
SplineSet
214 613 m 0
 217 613 225 614 232 613 c 0
 246 613 257 612 265 607 c 0
 269 605 483 443 639 325 c 0
 645 320 651 315 652 314 c 0
 656 308 653 301 647 296 c 0
 644 293 134 12 123 7 c 0
 113 2 103 1 86 1 c 0
 72 1 69 1 64 3 c 0
 55 5 48 8 43 12 c 0
 34 18 35 28 44 35 c 0
 46 36 158 99 294 174 c 0
 430 248 541 309 541 309 c 1
 541 309 459 371 361 446 c 0
 252 529 182 582 180 584 c 0
 178 588 177 593 179 597 c 0
 183 604 198 610 214 613 c 0
EndSplineSet
Validated: 1
EndChar

StartChar: question
Encoding: 63 63 30
Width: 485
VWidth: 910
Flags: HW
LayerCount: 2
Fore
SplineSet
420 824 m 0
 432 825 464 824 476 823 c 0
 513 817 541 804 563 783 c 0
 584 761 597 734 603 697 c 0
 611 651 605 585 587 532 c 0
 560 452 499 379 421 332 c 0
 407 324 374 308 371 308 c 0
 370 308 372 314 354 240 c 0
 345 206 338 178 338 177 c 0
 336 173 330 169 324 166 c 0
 304 157 272 157 252 166 c 0
 244 170 238 176 238 181 c 0
 238 182 246 215 255 254 c 2
 273 324 l 1
 277 328 l 2
 281 333 284 335 299 340 c 0
 375 372 442 436 477 512 c 0
 504 572 514 653 500 709 c 0
 492 741 475 765 455 775 c 0
 447 780 439 780 427 776 c 0
 369 756 309 680 279 586 c 0
 276 577 273 568 272 563 c 0
 269 553 267 550 259 545 c 0
 248 539 239 538 221 538 c 0
 206 538 203 538 197 540 c 0
 182 544 172 551 170 558 c 0
 170 562 172 571 179 593 c 0
 210 690 269 765 337 800 c 0
 362 812 392 821 420 824 c 0
233 46 m 0
 241 47 263 46 272 44 c 0
 286 40 297 33 299 26 c 0
 301 16 290 8 271 3 c 0
 260 0 236 0 225 3 c 0
 206 8 196 15 198 26 c 0
 200 34 213 43 233 46 c 0
EndSplineSet
Validated: 33
EndChar

StartChar: at
Encoding: 64 64 31
Width: 728
VWidth: 910
Flags: HW
LayerCount: 2
Fore
SplineSet
520 733 m 0
 522 733 532 734 541 734 c 0
 600 734 653 718 693 689 c 0
 709 676 729 654 741 635 c 0
 780 569 790 476 767 375 c 0
 747 287 702 203 640 144 c 0
 601 106 561 83 522 76 c 0
 507 74 480 73 467 76 c 0
 456 79 446 82 438 87 c 2
 433 90 l 1
 426 89 l 2
 391 82 347 86 320 99 c 0
 289 114 272 138 266 177 c 0
 264 190 264 228 266 245 c 0
 270 281 276 318 290 373 c 0
 334 547 386 622 477 639 c 0
 540 652 598 635 617 599 c 0
 621 592 624 580 624 575 c 0
 624 573 601 477 572 360 c 0
 542 243 518 145 517 142 c 0
 517 139 517 137 518 137 c 2
 518 137 523 141 528 145 c 0
 568 178 605 223 632 279 c 0
 648 313 659 344 667 381 c 0
 690 484 678 580 634 637 c 0
 617 660 594 677 571 683 c 0
 533 695 485 682 435 648 c 0
 334 581 253 441 236 304 c 0
 225 218 240 143 276 93 c 0
 288 76 308 58 325 51 c 2
 332 47 l 1
 337 50 l 2
 348 55 355 56 373 56 c 0
 388 56 391 56 398 54 c 0
 419 49 430 38 429 25 c 0
 427 12 415 2 394 -3 c 0
 373 -8 331 -5 297 3 c 0
 267 10 241 23 218 39 c 0
 208 46 188 66 182 75 c 0
 153 114 137 163 132 223 c 0
 131 241 131 275 133 294 c 0
 145 402 193 513 264 596 c 0
 277 611 305 640 320 652 c 0
 381 701 445 728 520 733 c 0
518 590 m 0
 516 593 514 595 512 595 c 0
 508 595 494 585 482 573 c 0
 447 538 416 471 390 365 c 0
 376 312 372 280 367 243 c 0
 365 228 365 191 367 180 c 0
 371 161 376 146 385 137 c 2
 390 133 l 1
 394 136 l 2
 400 140 410 147 415 153 c 2
 420 159 l 1
 471 367 l 1
 523 575 l 1
 522 580 l 2
 521 583 520 587 518 590 c 0
EndSplineSet
Validated: 33
EndChar

StartChar: A
Encoding: 65 65 32
Width: 576
VWidth: 910
Flags: HW
LayerCount: 2
Fore
SplineSet
427 818 m 0
 430 818 458 819 491 819 c 0
 547 818 549 818 556 816 c 0
 570 812 582 805 583 799 c 0
 584 797 573 622 560 409 c 0
 541 87 536 20 535 18 c 0
 531 11 523 6 509 3 c 0
 503 1 499 1 486 1 c 0
 469 1 462 2 451 7 c 0
 440 12 436 16 436 25 c 0
 436 28 441 109 447 205 c 0
 452 301 457 380 457 383 c 2
 457 387 l 1
 385 387 l 1
 313 387 l 1
 232 202 l 2
 142 -2 149 12 138 7 c 0
 126 2 119 1 103 1 c 0
 89 1 85 1 79 3 c 0
 68 6 61 10 56 15 c 0
 51 20 50 23 53 29 c 0
 54 31 131 207 224 418 c 0
 335 672 394 804 396 806 c 0
 401 811 414 816 427 818 c 0
471 604 m 0
 476 693 481 766 481 766 c 2
 480 766 336 438 334 435 c 0
 334 433 338 433 397 433 c 2
 461 433 l 1
 461 438 l 2
 461 441 466 515 471 604 c 0
EndSplineSet
Validated: 33
EndChar

StartChar: B
Encoding: 66 66 33
Width: 546
VWidth: 910
Flags: HW
LayerCount: 2
Fore
SplineSet
280 818 m 0
 287 819 338 818 359 817 c 0
 407 812 445 806 482 796 c 0
 564 773 618 734 634 683 c 0
 639 667 642 660 641 641 c 0
 641 626 641 622 639 611 c 0
 625 545 582 491 513 449 c 0
 490 435 459 421 433 412 c 0
 427 410 422 409 422 409 c 2
 423 409 426 407 431 405 c 0
 453 396 480 382 496 368 c 0
 518 349 535 324 543 299 c 0
 552 273 552 244 545 213 c 0
 527 142 473 87 386 50 c 0
 315 19 214 1 117 1 c 0
 88 1 86 1 79 3 c 0
 59 8 49 16 52 26 c 0
 53 31 60 36 66 39 c 2
 71 42 l 1
 115 218 l 2
 143 330 158 396 158 396 c 2
 155 397 150 403 148 406 c 0
 147 411 147 410 149 414 c 0
 151 419 155 422 162 426 c 0
 167 429 167 429 168 432 c 0
 168 434 188 513 212 609 c 0
 239 717 255 782 255 782 c 2
 252 783 247 789 245 792 c 0
 244 797 244 796 246 800 c 0
 247 803 248 805 250 806 c 0
 255 811 266 816 280 818 c 0
370 768 m 2
 356 770 l 2
 355 770 339 711 313 603 c 0
 289 511 270 435 270 434 c 0
 269 432 299 434 322 438 c 0
 376 446 426 468 465 499 c 0
 503 531 529 569 538 613 c 0
 544 648 539 679 520 704 c 0
 512 714 504 721 491 730 c 0
 463 749 422 762 370 768 c 2
312 384 m 0
 304 385 293 386 279 387 c 2
 259 387 l 1
 217 219 l 2
 194 126 175 51 175 50 c 1
 176 50 182 51 188 51 c 0
 261 60 319 80 364 108 c 0
 395 129 416 153 431 183 c 0
 452 225 455 270 439 305 c 0
 433 318 426 327 416 338 c 0
 391 362 356 378 312 384 c 0
EndSplineSet
Validated: 33
EndChar

StartChar: C
Encoding: 67 67 34
Width: 546
VWidth: 910
Flags: HW
LayerCount: 2
Fore
SplineSet
454 824 m 0
 461 825 490 825 501 824 c 0
 574 818 633 792 674 749 c 0
 685 738 688 733 688 728 c 0
 688 720 678 712 662 707 c 0
 657 706 652 706 638 706 c 0
 623 706 619 706 613 708 c 0
 601 712 596 715 591 721 c 0
 566 747 546 761 520 770 c 0
 502 776 478 780 463 777 c 0
 440 773 413 756 390 731 c 0
 345 681 311 602 276 473 c 0
 268 445 250 375 244 346 c 0
 212 208 208 125 232 77 c 0
 240 60 249 50 262 44 c 0
 269 41 278 40 293 42 c 0
 339 47 384 65 430 99 c 0
 447 111 458 115 482 114 c 0
 498 113 504 112 514 107 c 0
 529 100 533 90 523 80 c 0
 515 73 486 54 466 43 c 0
 406 10 335 -7 271 -5 c 0
 193 -2 145 28 126 86 c 0
 111 133 113 203 134 306 c 0
 147 368 171 468 189 527 c 0
 229 659 273 737 334 782 c 0
 342 788 361 799 372 804 c 0
 397 815 420 821 454 824 c 0
EndSplineSet
Validated: 33
EndChar

StartChar: D
Encoding: 68 68 35
Width: 530
VWidth: 910
Flags: HW
LayerCount: 2
Fore
SplineSet
280 818 m 0
 295 820 333 819 360 814 c 0
 436 802 500 766 542 713 c 0
 584 659 606 590 606 514 c 0
 606 408 563 292 488 198 c 0
 454 156 412 115 369 86 c 0
 333 61 286 38 245 24 c 0
 199 9 153 0 109 1 c 0
 89 1 86 1 79 3 c 0
 59 8 49 16 52 26 c 0
 53 31 60 36 66 39 c 2
 71 42 l 1
 163 411 l 2
 221 644 255 782 255 782 c 2
 252 783 247 789 245 792 c 0
 244 797 244 796 246 800 c 0
 247 803 248 805 250 806 c 0
 255 811 267 816 280 818 c 0
362 761 m 0
 353 764 353 764 352 763 c 0
 352 762 313 603 265 411 c 0
 217 219 178 61 177 60 c 0
 177 58 178 59 188 62 c 0
 228 77 272 101 310 132 c 0
 396 201 462 299 491 405 c 0
 517 505 507 604 462 675 c 0
 437 714 402 746 362 761 c 0
EndSplineSet
Validated: 33
EndChar

StartChar: E
Encoding: 69 69 36
Width: 530
VWidth: 910
Flags: HW
LayerCount: 2
Fore
SplineSet
280 818 m 0
 283 818 368 819 468 819 c 2
 650 818 l 1
 657 816 l 2
 672 812 682 806 684 799 c 0
 688 790 676 781 657 776 c 2
 650 774 l 1
 502 773 l 1
 355 773 l 1
 316 615 l 2
 294 529 277 459 277 458 c 0
 277 457 321 457 402 457 c 2
 529 456 l 1
 536 454 l 2
 561 448 570 435 557 423 c 0
 552 418 546 416 536 413 c 0
 529 411 528 412 397 411 c 2
 265 411 l 1
 219 229 l 2
 194 129 174 47 174 47 c 2
 174 46 238 46 315 46 c 2
 457 46 l 1
 464 44 l 2
 472 42 481 38 485 34 c 0
 487 33 489 30 490 27 c 0
 492 23 492 24 491 20 c 0
 487 12 478 7 463 3 c 2
 456 1 l 1
 271 1 l 1
 87 1 l 1
 79 3 l 2
 59 8 49 16 52 26 c 0
 53 31 60 36 66 39 c 2
 71 42 l 1
 118 230 l 1
 165 419 l 1
 163 421 l 2
 149 430 151 443 167 450 c 2
 173 452 l 1
 215 617 l 2
 240 721 255 782 255 782 c 2
 252 783 247 789 245 792 c 0
 244 797 244 796 246 800 c 0
 247 803 248 805 250 806 c 0
 255 811 267 816 280 818 c 0
EndSplineSet
Validated: 33
EndChar

StartChar: F
Encoding: 70 70 37
Width: 530
VWidth: 910
Flags: HW
LayerCount: 2
Fore
SplineSet
280 818 m 0
 283 818 368 819 468 819 c 2
 650 818 l 1
 657 816 l 2
 672 812 682 806 684 799 c 0
 688 790 676 781 657 776 c 2
 650 774 l 1
 502 773 l 1
 355 773 l 1
 316 615 l 2
 294 529 277 459 277 458 c 0
 277 457 321 457 402 457 c 2
 529 456 l 1
 536 454 l 2
 561 448 570 435 557 423 c 0
 552 418 546 416 536 413 c 0
 529 411 528 412 397 411 c 2
 265 411 l 1
 216 215 l 2
 189 108 167 19 166 17 c 0
 164 14 157 9 152 6 c 0
 142 1 133 1 117 1 c 0
 103 1 99 1 94 3 c 0
 79 7 68 14 66 20 c 0
 66 23 77 64 116 221 c 2
 165 419 l 1
 163 421 l 2
 149 430 151 443 167 450 c 2
 173 452 l 1
 215 617 l 2
 240 721 255 782 255 782 c 2
 252 783 247 789 245 792 c 0
 244 797 244 796 246 800 c 0
 247 803 248 805 250 806 c 0
 255 811 267 816 280 818 c 0
EndSplineSet
Validated: 33
EndChar

StartChar: G
Encoding: 71 71 38
Width: 546
VWidth: 910
Flags: HW
LayerCount: 2
Fore
SplineSet
454 824 m 0
 461 825 488 825 499 824 c 0
 552 819 596 803 631 777 c 0
 647 764 670 739 673 731 c 0
 675 725 669 717 658 712 c 0
 640 704 605 704 587 712 c 0
 580 716 578 717 571 727 c 0
 550 753 521 772 490 777 c 0
 469 780 454 777 435 767 c 0
 384 740 340 672 303 563 c 0
 286 515 262 426 244 346 c 0
 212 208 208 125 232 77 c 0
 240 60 249 50 263 44 c 0
 268 42 268 42 280 42 c 0
 293 42 305 42 319 47 c 0
 348 55 377 70 405 91 c 0
 412 96 414 98 415 101 c 0
 418 110 486 385 486 386 c 0
 486 387 462 387 423 387 c 0
 362 388 359 388 352 390 c 0
 327 396 318 409 331 421 c 0
 336 426 342 428 353 431 c 2
 361 433 l 1
 467 433 l 1
 573 433 l 1
 581 431 l 2
 601 426 611 417 608 407 c 0
 607 402 600 397 594 394 c 2
 590 391 l 1
 552 240 l 2
 531 157 513 89 512 86 c 0
 510 83 508 80 501 74 c 0
 448 32 388 6 319 -3 c 0
 297 -6 259 -6 241 -3 c 0
 179 6 142 36 126 86 c 0
 111 133 113 203 134 306 c 0
 147 368 171 468 189 527 c 0
 229 659 273 737 334 782 c 0
 342 788 361 799 372 804 c 0
 397 815 420 821 454 824 c 0
EndSplineSet
Validated: 33
EndChar

StartChar: H
Encoding: 72 72 39
Width: 546
VWidth: 910
Flags: HW
LayerCount: 2
Fore
SplineSet
296 818 m 0
 304 819 325 818 334 816 c 0
 349 812 358 805 360 798 c 0
 360 795 354 766 319 627 c 0
 296 534 277 458 277 458 c 2
 277 457 327 457 388 457 c 2
 499 457 l 1
 542 629 l 1
 584 801 l 1
 588 806 l 2
 593 811 601 813 612 816 c 0
 623 819 647 819 658 816 c 0
 673 812 682 805 684 798 c 0
 684 795 677 766 642 622 c 2
 598 449 l 1
 600 447 l 2
 610 441 611 431 604 424 c 0
 601 421 598 419 595 418 c 2
 590 416 l 1
 541 218 l 2
 514 109 491 19 490 18 c 0
 487 12 477 7 463 3 c 0
 452 0 428 0 418 3 c 0
 403 7 392 14 390 20 c 0
 390 23 400 63 438 216 c 0
 464 322 486 408 487 409 c 0
 487 411 482 411 376 411 c 2
 265 411 l 1
 216 215 l 2
 189 108 167 19 166 17 c 0
 164 14 157 9 152 6 c 0
 142 1 133 1 117 1 c 0
 103 1 99 1 94 3 c 0
 79 7 68 14 66 20 c 0
 66 23 77 64 116 221 c 2
 165 419 l 1
 163 421 l 2
 149 430 151 443 167 450 c 2
 174 452 l 1
 217 627 l 1
 260 801 l 1
 264 806 l 2
 269 811 281 815 296 818 c 0
EndSplineSet
Validated: 33
EndChar

StartChar: I
Encoding: 73 73 40
Width: 334
VWidth: 910
Flags: HW
LayerCount: 2
Fore
SplineSet
336 818 m 0
 339 818 354 819 370 819 c 0
 402 818 406 818 419 811 c 0
 436 803 436 789 419 781 c 2
 412 778 l 1
 320 408 l 1
 228 38 l 1
 229 36 l 2
 233 33 237 29 238 26 c 0
 240 16 231 8 212 3 c 0
 205 1 203 1 173 1 c 0
 138 1 134 1 120 8 c 0
 103 16 103 30 120 38 c 0
 125 41 126 42 127 45 c 0
 129 50 311 780 311 781 c 2
 308 785 l 2
 301 790 298 798 303 804 c 0
 307 809 321 816 336 818 c 0
EndSplineSet
Validated: 33
EndChar

StartChar: J
Encoding: 74 74 41
Width: 455
VWidth: 910
Flags: HW
LayerCount: 2
Fore
SplineSet
513 818 m 0
 516 818 531 819 546 819 c 0
 571 818 575 818 582 816 c 0
 601 811 611 803 608 793 c 0
 607 788 600 783 594 780 c 2
 589 777 l 1
 507 448 l 2
 418 94 423 111 412 95 c 0
 406 83 400 76 389 65 c 0
 355 31 305 9 249 2 c 0
 236 0 201 0 188 2 c 0
 147 7 112 21 90 42 c 0
 66 64 57 94 62 125 c 0
 64 136 64 137 69 142 c 0
 74 147 80 149 90 152 c 0
 95 154 99 154 114 154 c 0
 128 154 131 154 137 152 c 0
 152 148 162 142 164 135 c 0
 164 134 163 128 162 122 c 0
 158 98 164 80 179 65 c 0
 194 50 211 43 230 47 c 0
 254 52 279 66 297 84 c 0
 307 94 313 102 319 115 c 2
 324 125 l 1
 406 453 l 2
 452 634 488 782 488 782 c 2
 486 782 480 788 478 792 c 0
 477 797 477 796 479 800 c 0
 480 803 481 805 483 806 c 0
 488 811 500 816 513 818 c 0
EndSplineSet
Validated: 33
EndChar

StartChar: K
Encoding: 75 75 42
Width: 530
VWidth: 910
Flags: HW
LayerCount: 2
Fore
SplineSet
296 818 m 0
 304 819 325 818 334 816 c 0
 349 812 358 805 360 798 c 0
 360 795 355 773 329 667 c 0
 312 597 297 539 297 539 c 2
 298 539 358 595 434 664 c 0
 510 733 577 795 582 800 c 0
 593 810 598 812 611 816 c 0
 621 819 645 819 656 816 c 0
 676 811 688 802 684 792 c 0
 682 788 697 801 470 593 c 0
 374 505 294 432 294 431 c 1
 295 431 297 431 302 432 c 0
 311 434 329 434 339 431 c 0
 348 428 355 425 360 420 c 0
 364 416 365 409 482 53 c 1
 492 24 l 1
 491 19 l 2
 487 12 478 7 463 3 c 0
 452 0 428 0 418 3 c 0
 404 7 395 12 392 17 c 0
 391 18 363 106 329 212 c 0
 294 318 265 404 265 404 c 2
 264 405 264 404 263 403 c 0
 262 402 241 316 215 211 c 0
 189 106 167 20 167 19 c 0
 165 15 158 9 152 6 c 0
 142 1 133 1 117 1 c 0
 103 1 99 1 94 3 c 0
 79 7 68 14 66 20 c 0
 66 23 86 102 164 412 c 2
 260 801 l 1
 264 806 l 2
 269 811 281 815 296 818 c 0
EndSplineSet
Validated: 33
EndChar

StartChar: L
Encoding: 76 76 43
Width: 516
VWidth: 910
Flags: HW
LayerCount: 2
Fore
SplineSet
296 818 m 0
 304 819 325 818 334 816 c 0
 349 812 358 805 360 798 c 0
 360 795 345 733 268 422 c 0
 217 217 174 49 174 48 c 0
 174 46 182 46 316 46 c 2
 458 46 l 1
 464 44 l 2
 482 39 492 32 492 23 c 0
 492 15 481 7 462 2 c 0
 457 1 442 1 272 1 c 2
 87 1 l 1
 79 3 l 2
 59 8 49 16 52 26 c 0
 53 31 60 36 66 39 c 2
 71 42 l 1
 166 421 l 1
 260 801 l 1
 264 806 l 2
 269 811 281 815 296 818 c 0
EndSplineSet
Validated: 33
EndChar

StartChar: M
Encoding: 77 77 44
Width: 789
VWidth: 910
Flags: HW
LayerCount: 2
Fore
SplineSet
296 818 m 0
 303 819 317 819 325 818 c 0
 340 816 355 809 359 802 c 0
 360 800 374 709 404 510 c 0
 429 351 449 220 449 220 c 1
 449 220 534 352 639 511 c 0
 743 671 829 803 831 806 c 0
 836 811 844 813 855 816 c 0
 866 819 890 819 901 816 c 0
 916 812 926 805 928 798 c 0
 928 795 912 731 831 408 c 0
 778 195 734 19 733 18 c 0
 730 12 720 7 706 3 c 0
 695 0 671 0 661 3 c 0
 646 7 636 14 634 20 c 0
 634 23 646 75 697 280 c 0
 732 421 762 538 762 538 c 1
 762 538 694 435 613 310 c 0
 528 180 463 82 461 80 c 0
 448 69 418 65 393 71 c 0
 381 74 372 81 369 86 c 0
 368 87 351 190 332 315 c 0
 314 440 298 542 298 541 c 2
 298 541 267 423 232 280 c 0
 197 137 167 19 166 18 c 0
 163 12 153 7 139 3 c 0
 128 0 104 0 94 3 c 0
 79 7 68 14 66 20 c 0
 66 23 86 102 164 412 c 2
 260 801 l 1
 264 806 l 2
 269 811 281 816 296 818 c 0
EndSplineSet
Validated: 33
EndChar

StartChar: N
Encoding: 78 78 45
Width: 546
VWidth: 910
Flags: HW
LayerCount: 2
Fore
SplineSet
296 818 m 0
 303 819 317 819 325 818 c 0
 340 816 355 809 359 802 c 0
 360 800 376 704 405 534 c 0
 430 387 450 269 451 268 c 0
 451 267 481 387 518 534 c 2
 585 802 l 1
 589 806 l 2
 593 811 601 813 612 816 c 0
 623 819 647 819 658 816 c 0
 673 812 682 805 684 798 c 0
 684 795 669 731 588 408 c 0
 535 195 491 19 490 18 c 0
 488 14 481 9 476 6 c 0
 459 -1 431 -1 412 5 c 0
 403 8 394 12 392 17 c 0
 391 19 375 115 346 286 c 0
 321 433 300 552 300 552 c 1
 300 552 270 433 234 286 c 0
 198 140 167 19 166 18 c 0
 163 12 153 7 139 3 c 0
 128 0 104 0 94 3 c 0
 79 7 68 14 66 20 c 0
 66 23 86 102 164 412 c 2
 260 801 l 1
 264 806 l 2
 269 811 281 816 296 818 c 0
EndSplineSet
Validated: 33
EndChar

StartChar: O
Encoding: 79 79 46
Width: 698
VWidth: 910
Flags: HW
LayerCount: 2
Fore
SplineSet
527 824 m 0
 536 825 577 824 588 823 c 0
 634 817 673 801 703 776 c 0
 740 744 765 698 775 635 c 0
 794 524 766 375 701 248 c 0
 672 189 637 141 597 100 c 0
 536 39 471 6 392 -4 c 0
 374 -6 332 -6 316 -4 c 0
 268 2 230 18 201 43 c 0
 163 75 138 121 128 184 c 0
 120 231 120 288 129 345 c 0
 148 473 203 600 279 690 c 0
 292 705 319 733 333 744 c 0
 393 793 451 818 527 824 c 0
573 776 m 0
 563 779 543 778 532 777 c 0
 473 767 409 721 354 649 c 0
 312 592 276 520 253 444 c 0
 212 308 213 181 257 106 c 0
 276 73 301 51 331 44 c 0
 342 41 365 41 379 44 c 0
 436 56 497 101 549 170 c 0
 591 227 627 300 650 376 c 0
 691 511 690 639 646 714 c 0
 628 747 601 769 573 776 c 0
EndSplineSet
Validated: 33
EndChar

StartChar: P
Encoding: 80 80 47
Width: 530
VWidth: 910
Flags: HW
LayerCount: 2
Fore
SplineSet
280 818 m 0
 293 820 336 820 371 816 c 0
 520 803 616 755 640 681 c 0
 645 667 646 659 645 641 c 0
 645 626 646 622 644 611 c 0
 634 562 606 518 563 484 c 0
 501 435 405 402 290 391 c 0
 278 390 268 390 265 389 c 2
 259 389 l 1
 213 204 l 2
 188 103 167 19 166 17 c 0
 164 14 157 9 152 6 c 0
 142 1 133 1 117 1 c 0
 103 1 99 1 94 3 c 0
 79 7 68 14 66 20 c 0
 66 23 76 62 113 209 c 0
 142 326 158 396 158 396 c 2
 155 397 150 403 148 406 c 0
 147 411 147 410 149 414 c 0
 151 419 155 422 162 426 c 0
 167 429 167 429 168 432 c 0
 168 434 188 513 212 609 c 0
 239 717 255 782 255 782 c 2
 252 783 247 789 245 792 c 0
 244 797 244 796 246 800 c 0
 247 803 248 805 250 806 c 0
 255 811 267 816 280 818 c 0
373 768 m 0
 365 769 358 770 357 770 c 0
 355 770 352 762 313 604 c 0
 290 513 271 439 271 438 c 0
 271 437 273 437 298 441 c 0
 392 454 463 486 503 534 c 0
 528 563 543 600 545 635 c 0
 546 666 537 692 515 714 c 0
 487 742 441 759 373 768 c 0
EndSplineSet
Validated: 33
EndChar

StartChar: Q
Encoding: 81 81 48
Width: 698
VWidth: 910
Flags: HW
LayerCount: 2
Fore
SplineSet
527 824 m 0
 536 825 577 824 588 823 c 0
 655 814 704 785 736 738 c 0
 764 696 779 641 781 573 c 0
 784 453 742 307 673 197 c 0
 655 168 629 134 614 118 c 2
 611 115 l 1
 626 71 l 2
 635 47 643 26 644 25 c 0
 645 19 638 11 628 6 c 0
 618 1 609 1 593 1 c 0
 575 1 567 2 556 7 c 0
 546 12 544 15 539 32 c 0
 535 40 533 47 532 47 c 2
 532 47 527 45 522 42 c 0
 481 17 441 2 392 -4 c 0
 374 -6 332 -6 316 -4 c 0
 268 2 230 18 201 43 c 0
 163 75 138 121 128 184 c 0
 120 231 120 288 129 345 c 0
 148 473 203 600 279 690 c 0
 292 705 319 733 333 744 c 0
 393 793 451 818 527 824 c 0
573 776 m 0
 563 779 543 778 532 777 c 0
 473 767 409 721 354 649 c 0
 312 592 276 520 253 444 c 0
 212 308 213 181 257 106 c 0
 276 73 301 51 331 44 c 0
 342 41 365 41 379 44 c 0
 418 52 460 77 498 113 c 2
 506 121 l 1
 492 158 l 2
 477 197 478 199 482 205 c 0
 484 209 493 214 501 216 c 0
 524 223 555 221 570 211 c 2
 574 208 l 1
 581 218 l 2
 616 277 642 340 660 411 c 0
 691 532 685 647 646 714 c 0
 628 747 601 769 573 776 c 0
EndSplineSet
Validated: 33
EndChar

StartChar: R
Encoding: 82 82 49
Width: 546
VWidth: 910
Flags: HW
LayerCount: 2
Fore
SplineSet
280 818 m 0
 297 821 365 818 406 813 c 0
 537 798 620 757 650 695 c 0
 664 667 665 636 656 600 c 0
 632 509 551 444 415 411 c 0
 405 408 391 405 384 403 c 0
 376 402 370 401 370 400 c 2
 370 400 402 317 441 214 c 0
 480 111 512 26 512 25 c 0
 513 22 510 16 506 13 c 0
 502 9 493 5 484 3 c 0
 473 0 449 0 439 3 c 0
 425 7 416 12 413 17 c 0
 412 18 380 102 342 203 c 0
 304 304 272 387 272 388 c 0
 271 389 270 389 265 389 c 2
 259 389 l 1
 213 204 l 2
 188 103 167 19 166 17 c 0
 164 14 157 9 152 6 c 0
 142 1 133 1 117 1 c 0
 103 1 99 1 94 3 c 0
 79 7 68 14 66 20 c 0
 66 23 76 62 113 209 c 0
 142 326 158 396 158 396 c 2
 155 397 150 403 148 406 c 0
 147 411 147 410 149 414 c 0
 151 419 155 422 162 426 c 0
 167 429 167 429 168 432 c 0
 168 434 188 513 212 609 c 0
 239 717 255 782 255 782 c 2
 252 783 247 789 245 792 c 0
 244 797 244 796 246 800 c 0
 247 803 248 805 250 806 c 0
 255 811 267 816 280 818 c 0
380 768 m 0
 354 771 355 771 354 770 c 0
 353 766 271 437 271 436 c 1
 272 436 311 440 325 443 c 0
 375 451 415 464 450 481 c 0
 494 504 523 533 542 570 c 0
 557 599 564 632 560 658 c 0
 558 669 555 677 550 687 c 0
 528 731 471 758 380 768 c 0
EndSplineSet
Validated: 33
EndChar

StartChar: S
Encoding: 83 83 50
Width: 546
VWidth: 910
Flags: HW
LayerCount: 2
Fore
SplineSet
455 824 m 0
 463 826 502 824 516 822 c 0
 566 816 606 799 631 774 c 0
 649 756 658 737 660 712 c 0
 660 701 658 686 655 680 c 0
 652 673 645 668 630 664 c 0
 624 662 620 662 606 662 c 0
 591 662 588 662 583 664 c 0
 573 667 567 669 562 674 c 0
 557 679 555 682 557 690 c 0
 558 694 558 700 558 708 c 0
 558 719 558 721 556 728 c 0
 547 753 524 772 491 777 c 0
 470 780 456 777 433 766 c 0
 403 751 375 727 351 695 c 0
 330 668 312 627 306 597 c 0
 296 549 314 507 361 465 c 0
 375 453 391 441 416 423 c 0
 441 407 456 394 471 381 c 0
 510 347 533 314 541 276 c 0
 543 268 542 263 542 248 c 0
 542 233 543 229 541 219 c 0
 534 185 517 149 496 117 c 0
 472 82 441 51 407 31 c 0
 378 13 346 1 311 -4 c 0
 296 -6 256 -6 239 -4 c 0
 186 3 145 21 120 46 c 0
 102 64 93 82 91 107 c 0
 91 118 93 133 96 140 c 0
 99 146 106 152 121 156 c 0
 127 158 131 157 146 157 c 0
 160 157 163 158 168 156 c 0
 178 153 184 151 189 146 c 0
 194 141 196 137 194 129 c 0
 193 125 193 119 193 111 c 0
 193 100 193 98 195 92 c 0
 204 65 229 47 263 42 c 0
 276 40 285 41 297 45 c 0
 347 61 399 114 425 178 c 0
 430 191 437 212 440 223 c 0
 443 234 443 259 441 269 c 0
 437 290 426 312 411 330 c 0
 394 352 373 370 331 398 c 0
 275 436 249 461 228 492 c 0
 216 510 209 527 205 545 c 0
 203 553 203 558 203 573 c 0
 203 588 203 591 205 601 c 0
 210 623 217 645 229 668 c 0
 273 754 354 814 443 823 c 0
 448 824 453 824 455 824 c 0
EndSplineSet
Validated: 33
EndChar

StartChar: T
Encoding: 84 84 51
Width: 516
VWidth: 910
Flags: HW
LayerCount: 2
Fore
SplineSet
280 818 m 0
 283 818 365 819 461 819 c 2
 635 818 l 1
 643 816 l 2
 658 812 667 806 669 799 c 0
 673 790 662 781 643 776 c 0
 636 774 634 774 569 773 c 2
 502 773 l 1
 408 397 l 2
 357 190 314 20 313 18 c 0
 310 12 302 7 288 3 c 0
 277 0 252 0 241 3 c 0
 226 7 215 14 214 21 c 0
 213 23 246 154 307 397 c 0
 358 602 399 770 400 771 c 0
 400 773 397 773 340 773 c 0
 281 774 278 774 271 776 c 0
 263 778 254 782 250 786 c 0
 248 787 247 789 246 792 c 0
 244 796 244 795 245 799 c 0
 249 808 261 815 280 818 c 0
EndSplineSet
Validated: 33
EndChar

StartChar: U
Encoding: 85 85 52
Width: 546
VWidth: 910
Flags: HW
LayerCount: 2
Fore
SplineSet
296 818 m 0
 304 819 325 818 334 816 c 0
 348 812 358 805 360 798 c 0
 360 795 346 734 280 473 c 0
 229 270 199 148 198 143 c 0
 196 131 197 117 200 106 c 0
 208 74 235 48 265 42 c 0
 294 37 337 54 372 82 c 0
 394 101 412 127 421 152 c 0
 422 157 459 303 503 479 c 0
 548 655 584 799 584 800 c 0
 586 804 593 810 599 813 c 0
 609 818 618 818 635 818 c 0
 648 818 652 818 658 816 c 0
 673 812 682 805 684 798 c 0
 684 796 669 733 604 474 c 0
 559 297 523 151 522 146 c 0
 502 90 452 41 386 15 c 0
 309 -16 215 -12 157 25 c 0
 113 52 92 97 97 145 c 0
 98 152 120 239 179 476 c 0
 223 653 260 799 260 800 c 0
 262 804 269 810 274 813 c 0
 280 815 288 817 296 818 c 0
EndSplineSet
Validated: 33
EndChar

StartChar: V
Encoding: 86 86 53
Width: 576
VWidth: 910
Flags: HW
LayerCount: 2
Fore
SplineSet
280 818 m 0
 288 819 310 818 318 816 c 0
 331 812 339 808 343 803 c 0
 345 800 345 798 345 793 c 0
 345 788 335 621 323 420 c 0
 310 218 300 53 300 53 c 2
 301 53 375 221 466 428 c 0
 610 757 631 803 634 806 c 0
 639 811 645 813 656 816 c 0
 666 819 691 819 702 816 c 0
 713 813 720 810 725 805 c 0
 730 800 731 796 728 790 c 0
 727 788 650 612 557 401 c 0
 440 134 387 16 385 14 c 0
 382 10 371 6 363 3 c 0
 356 1 355 1 295 1 c 0
 235 1 233 1 226 3 c 0
 211 7 199 14 198 20 c 0
 197 22 208 198 221 411 c 0
 240 733 245 799 246 802 c 0
 251 809 263 815 280 818 c 0
EndSplineSet
Validated: 33
EndChar

StartChar: W
Encoding: 87 87 54
Width: 819
VWidth: 910
Flags: HW
LayerCount: 2
Fore
SplineSet
280 818 m 0
 283 818 292 819 299 819 c 0
 313 818 321 817 330 812 c 0
 340 807 345 803 345 795 c 0
 345 792 332 645 317 468 c 0
 302 291 289 146 289 145 c 2
 289 145 346 271 413 428 c 0
 533 702 537 711 542 715 c 0
 547 720 552 722 563 725 c 0
 574 728 599 728 610 725 c 0
 624 721 634 714 636 708 c 0
 636 706 628 578 618 423 c 0
 608 268 600 142 600 142 c 2
 601 142 661 290 737 472 c 0
 888 839 875 807 886 812 c 0
 898 817 905 818 922 818 c 0
 935 818 939 818 945 816 c 0
 956 813 963 810 968 805 c 0
 973 800 974 796 971 790 c 0
 968 783 656 26 653 21 c 0
 652 18 649 15 648 13 c 0
 643 9 635 5 626 3 c 0
 619 1 616 1 577 0 c 0
 532 0 525 0 513 5 c 0
 504 8 495 12 493 17 c 2
 492 21 l 1
 504 223 l 2
 511 333 517 425 517 426 c 0
 517 427 477 337 427 222 c 0
 341 24 338 17 333 13 c 0
 328 8 322 6 311 3 c 0
 304 1 303 1 259 1 c 0
 215 1 213 1 206 3 c 0
 191 7 181 12 178 19 c 0
 177 22 181 66 211 409 c 0
 229 621 245 796 245 798 c 0
 248 808 260 815 280 818 c 0
EndSplineSet
Validated: 33
EndChar

StartChar: X
Encoding: 88 88 55
Width: 546
VWidth: 910
Flags: HW
LayerCount: 2
Fore
SplineSet
296 818 m 0
 303 819 317 819 325 818 c 0
 340 816 355 809 359 802 c 0
 360 800 369 748 383 673 c 0
 396 603 406 544 407 543 c 0
 407 540 415 553 497 673 c 0
 549 749 588 805 590 807 c 0
 604 819 638 823 663 815 c 0
 671 812 681 807 683 802 c 0
 687 795 694 807 557 605 c 0
 487 503 431 419 430 418 c 0
 430 416 446 327 465 219 c 0
 496 49 501 23 500 20 c 0
 499 15 491 10 485 6 c 0
 468 -1 440 -1 421 5 c 0
 412 8 403 12 401 17 c 0
 400 19 389 76 374 160 c 0
 360 236 350 299 350 299 c 2
 349 299 306 235 253 158 c 0
 200 81 156 17 154 14 c 0
 141 1 104 -3 79 5 c 0
 71 8 61 12 59 17 c 0
 55 24 46 11 192 226 c 2
 327 422 l 1
 293 610 l 2
 255 818 258 799 266 806 c 0
 271 811 282 816 296 818 c 0
EndSplineSet
Validated: 33
EndChar

StartChar: Y
Encoding: 89 89 56
Width: 546
VWidth: 910
Flags: HW
LayerCount: 2
Fore
SplineSet
296 818 m 0
 303 819 317 819 325 818 c 0
 340 816 355 809 359 802 c 0
 360 800 371 742 385 674 c 0
 403 580 410 550 411 551 c 0
 411 552 451 608 498 677 c 0
 546 746 587 804 589 806 c 0
 601 819 638 823 663 815 c 0
 671 812 681 807 683 802 c 0
 688 795 695 808 557 610 c 2
 431 428 l 1
 380 223 l 1
 329 18 l 1
 325 14 l 2
 320 9 312 6 301 3 c 0
 290 0 266 0 256 3 c 0
 241 7 230 14 228 21 c 0
 228 24 236 58 279 229 c 2
 330 434 l 1
 295 615 l 2
 255 817 258 799 266 806 c 0
 271 811 282 816 296 818 c 0
EndSplineSet
Validated: 33
EndChar

StartChar: Z
Encoding: 90 90 57
Width: 516
VWidth: 910
Flags: HW
LayerCount: 2
Fore
SplineSet
280 818 m 0
 283 818 365 819 461 819 c 2
 635 818 l 1
 643 816 l 2
 661 811 672 803 670 794 c 0
 669 793 557 624 420 419 c 2
 170 47 l 1
 306 46 l 1
 442 46 l 1
 450 44 l 2
 458 42 467 38 471 34 c 0
 473 33 474 30 475 27 c 0
 477 23 477 24 476 20 c 0
 472 12 464 7 449 3 c 2
 441 1 l 1
 264 1 l 1
 87 1 l 1
 79 3 l 2
 60 8 49 16 51 25 c 0
 52 26 164 195 301 400 c 2
 551 773 l 1
 415 773 l 1
 279 774 l 1
 271 776 l 2
 263 778 254 782 250 786 c 0
 248 787 247 789 246 792 c 0
 244 796 244 795 245 799 c 0
 249 808 261 815 280 818 c 0
EndSplineSet
Validated: 33
EndChar

StartChar: bracketleft
Encoding: 91 91 58
Width: 243
VWidth: 910
Flags: HW
LayerCount: 2
Fore
SplineSet
273 848 m 0
 276 848 302 849 331 849 c 0
 383 848 385 849 392 847 c 0
 406 843 417 836 419 829 c 0
 423 820 411 811 392 806 c 0
 386 804 382 804 359 803 c 2
 332 803 l 1
 331 799 l 2
 331 797 287 622 234 408 c 0
 180 194 137 19 136 18 c 0
 136 16 138 16 156 16 c 0
 172 15 178 16 184 14 c 0
 209 8 218 -5 205 -17 c 0
 200 -22 194 -24 183 -27 c 0
 176 -29 174 -29 120 -29 c 0
 65 -29 63 -29 56 -27 c 0
 41 -23 31 -17 29 -10 c 0
 28 -7 37 30 132 409 c 0
 189 637 237 826 238 828 c 0
 241 838 253 845 273 848 c 0
EndSplineSet
Validated: 33
EndChar

StartChar: backslash
Encoding: 92 92 59
Width: 303
VWidth: 910
Flags: HW
LayerCount: 2
Fore
SplineSet
265 818 m 0
 273 819 294 818 303 816 c 0
 317 812 327 807 330 800 c 0
 331 798 327 749 304 409 c 0
 280 46 279 20 277 16 c 0
 273 11 265 7 251 3 c 0
 241 0 217 0 206 3 c 0
 191 7 181 12 178 19 c 0
 177 21 181 71 204 411 c 0
 228 774 229 799 231 803 c 0
 236 809 249 815 265 818 c 0
EndSplineSet
Validated: 33
EndChar

StartChar: bracketright
Encoding: 93 93 60
Width: 243
VWidth: 910
Flags: HW
LayerCount: 2
Fore
SplineSet
273 848 m 0
 276 848 302 849 331 849 c 0
 383 848 385 849 392 847 c 0
 407 843 417 836 419 829 c 0
 420 826 411 790 316 411 c 0
 259 183 211 -7 210 -9 c 0
 207 -17 198 -23 183 -27 c 0
 176 -29 174 -29 120 -29 c 0
 65 -29 63 -29 56 -27 c 0
 20 -18 20 5 56 14 c 0
 62 16 66 15 89 16 c 2
 116 16 l 1
 117 20 l 2
 117 22 161 197 214 411 c 0
 268 625 311 800 312 801 c 0
 312 803 310 803 292 803 c 0
 276 804 270 804 264 806 c 0
 245 811 234 820 238 829 c 0
 241 838 254 845 273 848 c 0
EndSplineSet
Validated: 33
EndChar

StartChar: asciicircum
Encoding: 94 94 61
Width: 303
VWidth: 910
Flags: HW
LayerCount: 2
Fore
SplineSet
336 818 m 0
 344 819 365 818 374 816 c 0
 383 813 392 811 396 806 c 0
 403 799 454 734 455 731 c 0
 456 726 455 723 451 719 c 0
 446 714 439 711 429 708 c 0
 423 706 420 706 405 706 c 0
 386 706 381 707 369 712 c 0
 362 716 359 718 349 731 c 2
 340 742 l 1
 340 742 331 735 321 728 c 0
 296 709 291 706 266 705 c 0
 255 705 249 705 244 706 c 0
 219 711 207 723 215 735 c 0
 217 738 307 807 313 811 c 0
 318 814 328 817 336 818 c 0
EndSplineSet
Validated: 33
EndChar

StartChar: underscore
Encoding: 95 95 62
Width: 546
VWidth: 910
Flags: HW
LayerCount: 2
Fore
SplineSet
30 -1 m 0
 33 -1 140 0 270 0 c 2
 506 -1 l 1
 513 -3 l 2
 528 -7 539 -14 540 -21 c 0
 542 -30 531 -39 512 -44 c 2
 505 -46 l 1
 268 -46 l 1
 30 -46 l 1
 22 -44 l 2
 4 -39 -5 -32 -5 -24 c 0
 -5 -18 -2 -12 7 -8 c 0
 12 -5 23 -2 30 -1 c 0
EndSplineSet
Validated: 33
EndChar

StartChar: a
Encoding: 97 97 63
Width: 516
VWidth: 910
Flags: HW
LayerCount: 2
Fore
SplineSet
380 618 m 0
 395 620 428 620 442 618 c 0
 464 614 485 609 500 603 c 2
 506 601 l 1
 512 604 l 2
 535 619 584 617 599 601 c 0
 601 598 602 595 603 593 c 0
 603 590 586 522 532 306 c 0
 493 149 461 20 461 19 c 0
 459 15 452 9 446 6 c 0
 424 -3 388 -2 370 9 c 2
 365 13 l 1
 357 10 l 2
 345 5 326 1 311 -1 c 0
 259 -10 215 -5 180 12 c 0
 140 31 119 67 112 123 c 0
 110 138 110 182 112 200 c 0
 123 296 156 407 194 477 c 0
 242 565 300 609 380 618 c 0
425 572 m 0
 417 574 403 574 397 573 c 0
 356 561 313 513 279 439 c 0
 236 347 206 210 212 136 c 0
 214 108 219 91 227 75 c 0
 237 54 250 41 264 41 c 0
 285 41 319 54 344 70 c 0
 355 77 371 90 376 95 c 0
 379 99 379 101 431 309 c 0
 460 425 484 520 484 522 c 0
 484 527 469 545 458 554 c 0
 450 560 433 569 425 572 c 0
EndSplineSet
Validated: 33
EndChar

StartChar: b
Encoding: 98 98 64
Width: 516
VWidth: 910
Flags: HW
LayerCount: 2
Fore
SplineSet
296 818 m 0
 304 819 325 818 334 816 c 0
 349 812 358 805 360 798 c 0
 360 795 357 780 340 711 c 0
 328 662 319 627 319 627 c 1
 330 632 354 637 369 640 c 0
 435 651 494 637 526 605 c 0
 551 580 562 546 564 494 c 0
 565 457 561 419 551 368 c 0
 526 241 490 147 440 83 c 0
 430 69 410 49 397 39 c 0
 373 21 345 7 316 1 c 0
 270 -10 216 -6 173 10 c 2
 163 14 l 1
 160 11 l 2
 155 8 148 5 139 3 c 0
 128 0 104 0 94 3 c 0
 79 7 68 14 66 20 c 0
 66 23 86 102 164 412 c 2
 260 801 l 1
 264 806 l 2
 269 811 281 815 296 818 c 0
421 595 m 0
 407 601 374 591 346 572 c 0
 327 559 312 544 298 527 c 2
 291 519 l 1
 238 305 l 1
 185 92 l 1
 190 84 l 2
 200 69 213 57 228 49 c 0
 240 44 248 42 261 42 c 0
 269 42 272 42 279 45 c 0
 294 50 310 61 327 77 c 0
 375 126 415 215 442 333 c 0
 457 399 464 452 463 494 c 0
 461 527 458 548 448 567 c 0
 441 582 431 590 421 595 c 0
EndSplineSet
Validated: 33
EndChar

StartChar: c
Encoding: 99 99 65
Width: 516
VWidth: 910
Flags: HW
LayerCount: 2
Fore
SplineSet
388 613 m 0
 390 614 397 614 405 614 c 0
 471 615 530 590 558 550 c 0
 572 531 583 505 580 497 c 0
 579 492 571 487 565 483 c 0
 555 478 546 478 530 478 c 0
 512 478 504 479 493 484 c 0
 484 489 482 492 479 502 c 0
 470 532 448 556 421 565 c 0
 418 566 414 567 410 568 c 0
 401 568 394 566 380 561 c 0
 324 533 274 450 240 334 c 0
 214 243 206 163 217 110 c 0
 225 74 246 46 265 46 c 0
 280 46 307 55 328 68 c 0
 346 79 368 99 382 117 c 0
 387 122 390 126 393 128 c 0
 417 142 465 139 480 124 c 0
 486 117 486 112 476 100 c 0
 454 72 422 46 390 30 c 0
 321 -5 236 -10 181 17 c 0
 141 36 120 71 113 127 c 0
 111 140 111 171 112 188 c 0
 117 264 141 359 175 435 c 0
 201 494 235 543 273 571 c 0
 306 596 342 608 388 613 c 0
EndSplineSet
Validated: 33
EndChar

StartChar: d
Encoding: 100 100 66
Width: 516
VWidth: 910
Flags: HW
LayerCount: 2
Fore
SplineSet
590 818 m 0
 598 819 619 818 628 816 c 0
 643 812 652 805 654 798 c 0
 654 795 639 731 558 408 c 0
 505 195 461 19 460 18 c 0
 458 14 451 9 446 6 c 0
 424 -3 388 -2 370 9 c 2
 365 13 l 1
 357 10 l 2
 345 5 326 1 311 -1 c 0
 259 -10 215 -5 180 12 c 0
 140 31 119 67 112 123 c 0
 110 138 110 182 112 200 c 0
 120 269 141 356 167 427 c 0
 220 566 287 632 388 643 c 0
 403 644 429 644 444 642 c 0
 463 639 485 633 501 627 c 0
 506 625 510 624 510 624 c 2
 511 624 520 664 532 713 c 2
 554 801 l 1
 558 806 l 2
 563 811 575 815 590 818 c 0
424 595 m 0
 410 599 396 596 380 586 c 0
 319 550 270 456 233 307 c 0
 213 228 207 162 215 114 c 0
 220 85 232 59 247 48 c 0
 257 41 263 40 278 43 c 0
 297 46 324 56 344 70 c 0
 356 78 371 91 376 96 c 0
 379 99 379 101 432 311 c 2
 485 524 l 1
 482 533 l 2
 472 565 449 589 424 595 c 0
EndSplineSet
Validated: 33
EndChar

StartChar: e
Encoding: 101 101 67
Width: 500
VWidth: 910
Flags: HW
LayerCount: 2
Fore
SplineSet
374 619 m 0
 388 620 418 620 432 618 c 0
 468 613 497 599 517 578 c 0
 535 558 547 531 552 493 c 0
 554 478 554 432 552 412 c 0
 548 382 541 346 534 314 c 0
 531 303 531 302 528 298 c 0
 523 293 515 290 505 287 c 2
 498 285 l 1
 362 284 l 1
 228 284 l 1
 226 276 l 2
 221 250 215 215 211 189 c 0
 209 168 209 128 211 113 c 0
 216 77 231 51 248 43 c 0
 253 41 258 40 270 42 c 0
 305 47 343 67 378 97 c 0
 387 105 391 108 403 111 c 0
 409 113 413 113 428 113 c 0
 442 113 446 113 451 112 c 0
 472 106 482 96 476 85 c 0
 472 80 450 61 434 50 c 0
 393 22 346 3 295 -3 c 0
 277 -6 241 -6 226 -4 c 0
 192 1 165 12 147 29 c 0
 127 47 115 73 110 111 c 0
 108 126 108 170 110 191 c 0
 118 265 142 360 170 430 c 0
 219 550 281 608 374 619 c 0
408 572 m 0
 401 576 392 573 378 567 c 0
 324 542 275 458 241 337 c 2
 239 330 l 1
 338 330 l 1
 437 330 l 1
 441 350 l 2
 449 393 451 419 451 454 c 0
 451 481 451 494 447 512 c 0
 440 541 425 564 408 572 c 0
EndSplineSet
Validated: 33
EndChar

StartChar: f
Encoding: 102 102 68
Width: 379
VWidth: 910
Flags: HW
LayerCount: 2
Fore
SplineSet
395 824 m 0
 397 825 404 825 411 825 c 0
 441 825 470 819 494 807 c 0
 507 802 514 797 522 789 c 0
 542 771 549 746 544 721 c 0
 543 714 543 712 540 709 c 0
 535 704 527 700 516 697 c 0
 505 694 481 694 471 697 c 0
 456 701 445 709 443 715 c 0
 443 716 443 720 444 725 c 0
 446 740 444 751 437 762 c 0
 435 765 433 768 431 770 c 0
 426 774 416 778 413 778 c 0
 407 778 398 776 389 771 c 0
 370 762 355 747 347 731 c 0
 342 722 341 717 309 590 c 0
 291 518 277 459 277 458 c 0
 277 457 301 457 342 457 c 0
 407 456 409 456 416 454 c 0
 425 451 433 448 438 443 c 0
 449 432 440 419 416 413 c 0
 409 411 407 412 337 411 c 2
 265 411 l 1
 218 224 l 2
 193 121 172 37 172 37 c 2
 174 37 180 31 182 27 c 0
 183 22 183 23 181 19 c 0
 180 16 179 14 177 13 c 0
 173 9 164 5 155 3 c 0
 148 1 144 1 117 1 c 0
 89 1 86 1 79 3 c 0
 59 8 49 16 52 26 c 0
 53 31 60 36 66 39 c 2
 71 42 l 1
 118 230 l 1
 165 419 l 1
 163 421 l 2
 149 430 151 443 167 450 c 2
 173 452 l 1
 208 591 l 2
 245 743 244 737 256 754 c 0
 265 768 282 783 299 794 c 0
 325 810 357 820 395 824 c 0
EndSplineSet
Validated: 33
EndChar

StartChar: g
Encoding: 103 103 69
Width: 516
VWidth: 910
Flags: HW
LayerCount: 2
Fore
SplineSet
380 618 m 0
 395 620 428 620 442 618 c 0
 464 614 485 609 500 603 c 2
 506 601 l 1
 512 604 l 2
 535 619 584 617 599 601 c 0
 601 598 602 595 603 593 c 0
 603 588 432 -98 427 -109 c 0
 421 -125 405 -144 390 -157 c 0
 350 -189 289 -207 221 -210 c 0
 169 -211 123 -200 88 -178 c 0
 65 -164 46 -144 35 -123 c 0
 31 -115 32 -115 33 -111 c 0
 35 -104 43 -98 58 -94 c 0
 64 -92 68 -92 83 -92 c 0
 102 -92 107 -93 119 -98 c 0
 126 -102 130 -105 135 -114 c 0
 145 -132 159 -147 177 -156 c 0
 191 -162 198 -164 215 -163 c 0
 259 -163 300 -144 320 -115 c 0
 327 -104 329 -99 343 -45 c 0
 350 -17 356 7 357 8 c 0
 357 9 355 9 347 6 c 0
 342 4 330 3 323 1 c 0
 247 -14 182 -2 147 35 c 0
 128 55 117 84 112 123 c 0
 110 138 110 182 112 200 c 0
 123 296 156 407 194 477 c 0
 242 565 300 609 380 618 c 0
425 572 m 0
 417 574 403 574 397 573 c 0
 356 561 313 513 279 439 c 0
 236 347 206 210 212 136 c 0
 214 108 219 91 227 75 c 0
 237 54 250 41 264 41 c 0
 285 41 319 54 344 70 c 0
 355 77 371 90 376 95 c 0
 379 99 379 101 431 309 c 0
 460 425 484 520 484 522 c 0
 484 527 469 545 458 554 c 0
 450 560 433 569 425 572 c 0
EndSplineSet
Validated: 33
EndChar

StartChar: h
Encoding: 104 104 70
Width: 516
VWidth: 910
Flags: HW
LayerCount: 2
Fore
SplineSet
296 818 m 0
 304 819 325 818 334 816 c 0
 349 812 358 805 360 798 c 0
 360 795 357 778 337 699 c 0
 324 646 313 604 313 603 c 2
 313 603 316 603 321 605 c 0
 371 623 434 624 483 608 c 0
 549 586 583 537 575 479 c 0
 573 471 463 24 461 19 c 0
 459 15 452 9 446 6 c 0
 436 1 427 1 411 1 c 0
 397 1 393 1 388 3 c 0
 373 7 362 14 360 20 c 0
 360 23 371 69 417 249 c 0
 448 374 473 479 474 484 c 0
 479 519 463 551 434 566 c 0
 426 571 415 573 408 573 c 0
 397 573 381 569 366 561 c 0
 331 545 301 513 284 478 c 2
 279 467 l 1
 223 244 l 2
 192 122 167 20 167 19 c 0
 165 15 158 9 152 6 c 0
 142 1 133 1 117 1 c 0
 103 1 99 1 94 3 c 0
 79 7 68 14 66 20 c 0
 66 23 86 102 164 412 c 2
 260 801 l 1
 264 806 l 2
 269 811 281 815 296 818 c 0
EndSplineSet
Validated: 33
EndChar

StartChar: i
Encoding: 105 105 71
Width: 273
VWidth: 910
Flags: HW
LayerCount: 2
Fore
SplineSet
300 739 m 0
 308 740 331 739 340 737 c 0
 354 733 364 727 366 720 c 0
 367 713 363 706 353 701 c 0
 342 696 333 694 316 694 c 0
 298 694 289 696 278 701 c 0
 268 706 264 712 265 720 c 0
 267 728 280 736 300 739 c 0
255 613 m 0
 258 613 273 614 288 614 c 0
 319 613 324 612 336 607 c 0
 343 603 347 600 349 595 c 0
 351 591 351 592 350 588 c 0
 348 583 343 579 336 575 c 2
 330 573 l 1
 264 305 l 2
 227 158 198 37 198 37 c 2
 200 37 206 31 208 27 c 0
 209 22 209 23 207 19 c 0
 206 16 204 14 202 13 c 0
 198 9 189 5 180 3 c 0
 173 1 170 1 143 1 c 0
 115 1 112 1 105 3 c 0
 75 10 67 27 90 39 c 2
 96 42 l 1
 163 309 l 2
 200 456 229 577 229 577 c 2
 227 577 220 584 219 588 c 0
 215 599 230 609 255 613 c 0
EndSplineSet
Validated: 33
EndChar

StartChar: j
Encoding: 106 106 72
Width: 364
VWidth: 910
Flags: HW
LayerCount: 2
Fore
SplineSet
417 739 m 0
 425 740 447 739 456 737 c 0
 470 733 480 727 482 720 c 0
 483 713 480 706 470 701 c 0
 459 696 449 694 432 694 c 0
 414 694 405 696 394 701 c 0
 384 706 380 712 381 720 c 0
 383 728 397 736 417 739 c 0
371 613 m 0
 374 613 389 614 404 614 c 0
 435 613 440 612 452 607 c 0
 459 603 463 600 465 595 c 0
 467 591 467 592 466 588 c 0
 464 583 459 579 452 575 c 2
 447 573 l 1
 362 233 l 2
 316 45 276 -110 275 -115 c 0
 271 -125 268 -129 262 -139 c 0
 242 -168 208 -191 165 -202 c 0
 109 -217 46 -210 8 -185 c 0
 -5 -176 -18 -160 -23 -148 c 0
 -28 -135 -29 -122 -27 -110 c 0
 -25 -100 -25 -98 -21 -94 c 0
 -6 -79 36 -75 61 -87 c 0
 68 -91 72 -94 74 -99 c 0
 76 -102 76 -104 74 -110 c 0
 71 -127 75 -142 86 -153 c 0
 91 -158 101 -164 106 -164 c 0
 115 -164 134 -155 147 -146 c 0
 159 -136 169 -124 174 -111 c 0
 177 -104 347 577 346 577 c 0
 344 577 337 585 336 588 c 0
 332 599 346 609 371 613 c 0
EndSplineSet
Validated: 33
EndChar

StartChar: k
Encoding: 107 107 73
Width: 485
VWidth: 910
Flags: HW
LayerCount: 2
Fore
SplineSet
296 818 m 0
 304 819 325 818 334 816 c 0
 349 812 358 805 360 798 c 0
 360 795 353 762 313 605 c 0
 287 500 266 415 266 414 c 1
 267 414 322 457 389 510 c 0
 464 567 513 606 516 607 c 0
 526 612 537 613 553 613 c 0
 568 613 573 613 584 609 c 0
 599 604 606 593 601 584 c 0
 600 582 538 534 439 457 c 0
 351 388 278 331 277 331 c 0
 276 330 279 330 289 330 c 0
 304 330 315 328 325 323 c 0
 337 318 332 328 399 169 c 0
 442 71 461 25 461 23 c 0
 461 17 453 9 442 5 c 0
 431 1 426 1 411 1 c 0
 394 1 384 2 373 7 c 0
 362 12 367 2 300 159 c 0
 267 236 240 301 239 301 c 2
 239 301 238 301 238 300 c 0
 237 299 221 236 202 160 c 0
 183 84 167 20 167 19 c 0
 165 15 158 9 152 6 c 0
 142 1 133 1 117 1 c 0
 103 1 99 1 94 3 c 0
 79 7 68 14 66 20 c 0
 66 23 86 102 164 412 c 2
 260 801 l 1
 264 806 l 2
 269 811 281 815 296 818 c 0
EndSplineSet
Validated: 33
EndChar

StartChar: l
Encoding: 108 108 74
Width: 273
VWidth: 910
Flags: HW
LayerCount: 2
Fore
SplineSet
306 818 m 0
 309 818 320 819 331 819 c 0
 348 818 354 818 360 816 c 0
 375 812 384 805 386 798 c 0
 386 795 370 732 291 416 c 0
 239 208 198 37 198 37 c 2
 200 37 206 31 208 27 c 0
 209 22 209 23 207 19 c 0
 206 16 204 14 202 13 c 0
 198 9 189 5 180 3 c 0
 173 1 170 1 143 1 c 0
 115 1 112 1 105 3 c 0
 85 8 74 16 77 26 c 0
 78 31 85 36 91 39 c 2
 96 42 l 1
 188 411 l 2
 246 644 280 782 280 782 c 2
 277 783 272 789 270 792 c 0
 269 797 269 796 271 800 c 0
 272 803 274 805 276 806 c 0
 281 811 293 816 306 818 c 0
EndSplineSet
Validated: 33
EndChar

StartChar: m
Encoding: 109 109 75
Width: 728
VWidth: 910
Flags: HW
LayerCount: 2
Fore
SplineSet
369 619 m 0
 375 620 412 619 421 618 c 0
 455 613 483 601 504 584 c 2
 507 583 l 1
 517 588 l 2
 555 610 602 621 648 620 c 0
 682 618 708 613 733 600 c 0
 753 590 767 577 778 562 c 0
 790 544 795 520 792 499 c 0
 791 492 675 24 673 19 c 0
 671 15 664 9 658 6 c 0
 648 1 639 1 623 1 c 0
 609 1 605 1 600 3 c 0
 585 7 575 14 573 20 c 0
 573 23 585 72 632 261 c 2
 692 500 l 1
 691 512 l 2
 691 523 691 525 689 532 c 0
 684 548 673 561 658 568 c 0
 652 572 649 572 644 573 c 0
 633 574 618 571 603 563 c 0
 572 548 548 520 539 492 c 0
 537 487 510 380 479 253 c 0
 447 126 420 20 420 19 c 0
 418 15 411 9 405 6 c 0
 395 1 386 1 370 1 c 0
 356 1 352 1 347 3 c 0
 332 7 321 14 319 20 c 0
 319 23 332 72 379 261 c 2
 439 500 l 1
 438 512 l 2
 438 523 438 525 436 532 c 0
 431 548 420 561 405 568 c 0
 394 573 388 575 377 572 c 0
 342 563 303 528 286 490 c 0
 284 487 263 405 225 253 c 0
 194 126 167 20 167 19 c 0
 165 15 158 9 152 6 c 0
 142 1 133 1 117 1 c 0
 103 1 99 1 94 3 c 0
 79 7 68 14 66 20 c 0
 66 23 81 82 138 310 c 2
 209 597 l 1
 213 601 l 2
 218 606 226 609 236 612 c 0
 241 614 245 613 259 613 c 0
 276 613 285 612 296 607 c 2
 301 604 l 1
 311 607 l 2
 330 613 343 616 369 619 c 0
EndSplineSet
Validated: 33
EndChar

StartChar: n
Encoding: 110 110 76
Width: 516
VWidth: 910
Flags: HW
LayerCount: 2
Fore
SplineSet
384 619 m 0
 395 620 429 619 442 618 c 0
 531 605 585 549 575 479 c 0
 573 471 463 24 461 19 c 0
 459 15 452 9 446 6 c 0
 436 1 427 1 411 1 c 0
 397 1 393 1 388 3 c 0
 373 7 362 14 360 20 c 0
 360 23 371 69 417 249 c 0
 448 374 473 479 474 484 c 0
 479 519 463 551 434 566 c 0
 426 571 415 573 408 573 c 0
 397 573 381 569 366 561 c 0
 331 545 301 513 284 478 c 2
 279 467 l 1
 223 244 l 2
 192 122 167 20 167 19 c 0
 165 15 158 9 152 6 c 0
 142 1 133 1 117 1 c 0
 103 1 99 1 94 3 c 0
 79 7 68 14 66 20 c 0
 66 23 81 82 138 310 c 2
 209 597 l 1
 213 601 l 2
 218 606 226 609 236 612 c 0
 246 615 270 615 281 612 c 0
 291 610 298 607 302 603 c 2
 306 600 l 1
 319 604 l 2
 339 611 360 616 384 619 c 0
EndSplineSet
Validated: 33
EndChar

StartChar: o
Encoding: 111 111 77
Width: 576
VWidth: 910
Flags: HW
LayerCount: 2
Fore
SplineSet
418 619 m 0
 427 620 463 619 475 617 c 0
 519 611 550 596 575 570 c 0
 602 542 619 504 625 451 c 0
 627 436 627 389 625 373 c 0
 611 256 559 145 486 75 c 0
 440 30 390 5 328 -4 c 0
 312 -6 274 -6 259 -4 c 0
 213 3 181 19 155 45 c 0
 128 73 111 111 105 165 c 0
 103 180 103 225 105 242 c 0
 121 379 192 511 284 573 c 0
 325 601 363 614 418 619 c 0
449 572 m 0
 440 575 430 574 418 571 c 0
 379 561 335 527 299 479 c 0
 254 419 220 338 209 262 c 0
 198 194 205 131 227 91 c 0
 245 58 271 40 297 41 c 0
 338 44 389 81 431 137 c 0
 476 196 510 276 521 353 c 0
 533 428 523 494 496 535 c 0
 483 554 465 568 449 572 c 0
EndSplineSet
Validated: 33
EndChar

StartChar: p
Encoding: 112 112 78
Width: 500
VWidth: 910
Flags: HW
LayerCount: 2
Fore
SplineSet
380 619 m 0
 387 620 422 619 432 618 c 0
 468 613 497 599 517 578 c 0
 540 553 551 516 553 465 c 0
 554 420 547 369 532 308 c 0
 506 201 466 116 418 64 c 0
 372 16 315 -7 247 -5 c 0
 221 -4 200 -1 177 6 c 0
 170 9 165 10 165 10 c 1
 165 10 153 -34 140 -88 c 2
 116 -187 l 1
 112 -190 l 2
 107 -195 99 -199 88 -202 c 0
 77 -205 53 -205 43 -202 c 0
 26 -197 15 -190 15 -182 c 0
 15 -180 59 -5 113 209 c 2
 209 597 l 1
 213 601 l 2
 218 606 226 609 236 612 c 0
 246 615 270 615 281 612 c 0
 289 610 297 606 300 604 c 0
 302 602 303 603 310 605 c 0
 326 610 351 616 368 618 c 0
 373 619 378 619 380 619 c 0
408 572 m 0
 393 578 356 566 326 546 c 0
 316 540 298 525 293 520 c 0
 292 518 280 475 238 305 c 2
 185 92 l 1
 189 85 l 2
 201 64 221 48 241 43 c 0
 255 39 264 41 279 47 c 0
 341 77 398 176 432 314 c 0
 455 406 458 481 442 527 c 0
 435 548 422 566 408 572 c 0
EndSplineSet
Validated: 33
EndChar

StartChar: q
Encoding: 113 113 79
Width: 500
VWidth: 910
Flags: HW
LayerCount: 2
Fore
SplineSet
381 619 m 0
 388 620 425 619 434 618 c 0
 449 615 465 612 480 607 c 2
 493 603 l 1
 498 605 l 2
 514 616 551 617 573 608 c 0
 580 604 586 599 587 594 c 0
 588 590 582 565 492 202 c 2
 394 -187 l 1
 390 -190 l 2
 385 -195 378 -199 367 -202 c 0
 356 -205 331 -205 321 -202 c 0
 304 -197 294 -190 294 -182 c 0
 294 -180 304 -137 318 -86 c 0
 331 -35 340 6 340 7 c 1
 339 7 334 6 328 5 c 0
 301 -2 283 -6 255 -5 c 0
 231 -5 219 -4 201 1 c 0
 149 15 119 46 107 99 c 0
 102 120 102 130 102 160 c 0
 102 197 105 224 114 269 c 0
 138 391 183 494 237 551 c 0
 277 593 320 614 381 619 c 0
413 572 m 0
 399 576 390 573 375 567 c 0
 313 537 256 438 222 301 c 0
 208 245 203 203 203 160 c 0
 203 133 204 121 208 104 c 0
 215 74 230 51 247 43 c 0
 252 41 258 40 269 43 c 0
 296 48 330 66 357 91 c 2
 363 97 l 1
 416 309 l 1
 470 522 l 1
 465 531 l 2
 452 552 433 567 413 572 c 0
EndSplineSet
Validated: 33
EndChar

StartChar: r
Encoding: 114 114 80
Width: 455
VWidth: 910
Flags: HW
LayerCount: 2
Fore
SplineSet
373 619 m 0
 381 621 417 619 429 617 c 0
 492 608 533 578 546 532 c 0
 548 525 548 522 548 508 c 0
 548 482 546 473 532 467 c 0
 508 455 466 457 451 472 c 0
 446 477 444 481 446 489 c 0
 447 493 447 499 447 508 c 0
 447 518 447 522 445 527 c 0
 439 550 422 567 402 572 c 0
 388 576 371 572 350 561 c 0
 322 547 300 524 288 497 c 0
 284 490 171 37 172 37 c 0
 174 37 180 31 182 27 c 0
 183 22 183 23 181 19 c 0
 180 16 179 14 177 13 c 0
 173 9 164 5 155 3 c 0
 148 1 144 1 117 1 c 0
 89 1 86 1 79 3 c 0
 59 8 49 16 52 26 c 0
 53 31 60 36 66 39 c 2
 71 42 l 1
 140 319 l 1
 209 597 l 1
 213 601 l 2
 218 606 226 609 236 612 c 0
 241 614 245 613 259 613 c 0
 276 613 285 612 296 607 c 2
 301 604 l 1
 313 608 l 2
 328 613 347 616 361 618 c 0
 366 619 371 619 373 619 c 0
EndSplineSet
Validated: 33
EndChar

StartChar: s
Encoding: 115 115 81
Width: 516
VWidth: 910
Flags: HW
LayerCount: 2
Fore
SplineSet
383 619 m 0
 395 620 429 619 443 618 c 0
 489 612 529 594 553 569 c 0
 561 561 566 553 571 543 c 0
 576 529 578 520 578 505 c 0
 578 480 576 471 563 465 c 0
 552 460 544 459 525 459 c 0
 510 459 507 459 502 461 c 0
 492 464 484 467 480 471 c 0
 475 476 474 478 477 494 c 0
 479 508 477 522 471 535 c 0
 465 549 453 560 438 566 c 0
 414 577 391 575 361 560 c 0
 315 538 282 497 269 451 c 0
 266 439 265 420 268 410 c 0
 277 377 305 352 369 325 c 0
 415 304 442 287 465 265 c 0
 501 228 509 187 488 136 c 0
 477 110 461 85 438 64 c 0
 401 28 352 4 297 -4 c 0
 282 -6 244 -6 228 -4 c 0
 180 2 141 21 117 46 c 0
 96 68 87 96 92 126 c 0
 95 139 97 142 103 147 c 0
 114 154 130 158 149 157 c 0
 167 156 182 151 190 143 c 0
 192 141 194 139 195 137 c 0
 195 136 195 132 194 127 c 0
 192 116 192 99 194 92 c 0
 199 78 207 64 218 56 c 0
 232 45 245 42 262 42 c 0
 276 42 284 44 301 52 c 0
 339 71 372 104 389 143 c 0
 404 181 402 212 379 239 c 0
 364 257 339 274 294 293 c 0
 249 313 221 330 198 352 c 0
 182 369 172 385 167 404 c 0
 165 411 166 415 166 427 c 0
 166 442 166 450 171 466 c 0
 181 495 197 520 221 544 c 0
 235 558 244 566 258 574 c 0
 295 599 336 614 383 619 c 0
EndSplineSet
Validated: 33
EndChar

StartChar: t
Encoding: 116 116 82
Width: 364
VWidth: 910
Flags: HW
LayerCount: 2
Fore
SplineSet
367 818 m 0
 375 819 396 818 405 816 c 0
 420 812 429 805 431 798 c 0
 431 795 428 779 410 706 c 0
 398 657 387 617 387 616 c 0
 387 614 390 614 417 614 c 0
 444 613 448 614 454 612 c 0
 472 607 482 600 482 592 c 0
 482 583 472 576 454 571 c 0
 448 569 445 569 411 568 c 2
 375 568 l 1
 374 564 l 2
 365 529 243 37 243 37 c 2
 245 37 251 31 253 27 c 0
 254 22 254 23 252 19 c 0
 251 16 250 14 248 13 c 0
 244 9 235 5 226 3 c 0
 219 1 215 1 188 1 c 0
 160 1 157 1 150 3 c 0
 130 8 120 16 123 26 c 0
 124 31 131 36 137 39 c 2
 142 42 l 1
 208 304 l 2
 244 449 273 567 273 567 c 2
 273 568 259 568 243 568 c 0
 216 569 212 569 206 571 c 0
 188 576 178 583 178 592 c 0
 178 600 188 607 206 612 c 0
 212 614 214 613 248 614 c 2
 285 614 l 1
 286 618 l 2
 286 620 296 662 309 711 c 2
 331 801 l 1
 335 806 l 2
 340 811 352 815 367 818 c 0
EndSplineSet
Validated: 33
EndChar

StartChar: u
Encoding: 117 117 83
Width: 516
VWidth: 910
Flags: HW
LayerCount: 2
Fore
SplineSet
244 613 m 0
 252 614 273 614 282 612 c 0
 297 608 308 600 309 593 c 0
 310 590 296 535 253 365 c 0
 222 240 197 135 196 131 c 0
 191 96 207 63 236 48 c 0
 250 41 262 39 278 43 c 0
 313 50 348 75 371 106 c 0
 377 115 386 130 389 141 c 0
 391 146 417 251 448 374 c 2
 503 597 l 1
 507 601 l 2
 512 606 520 609 530 612 c 0
 540 615 564 615 575 612 c 0
 590 608 601 600 603 593 c 0
 603 590 586 522 532 306 c 0
 493 149 461 20 461 19 c 0
 459 15 452 9 446 6 c 0
 424 -4 388 -2 370 10 c 2
 364 14 l 1
 354 10 l 2
 276 -17 186 -7 135 34 c 0
 104 59 90 97 95 136 c 0
 97 148 209 595 211 599 c 0
 215 604 230 611 244 613 c 0
EndSplineSet
Validated: 33
EndChar

StartChar: v
Encoding: 118 118 84
Width: 485
VWidth: 910
Flags: HW
LayerCount: 2
Fore
SplineSet
229 613 m 0
 237 615 259 614 268 612 c 0
 282 608 292 600 294 594 c 0
 294 593 289 487 284 360 c 0
 278 232 273 126 273 126 c 2
 274 126 322 232 381 361 c 0
 447 508 490 599 491 601 c 0
 495 605 504 609 514 612 c 0
 524 615 549 615 560 612 c 0
 575 608 583 602 587 594 c 0
 588 591 588 591 586 586 c 0
 585 584 527 455 456 299 c 0
 352 71 327 17 324 14 c 0
 320 9 312 6 301 3 c 0
 294 1 292 1 248 1 c 0
 204 1 203 1 196 3 c 0
 191 4 186 5 183 6 c 0
 177 9 170 15 168 19 c 0
 167 21 170 82 180 306 c 0
 187 463 193 591 194 593 c 0
 195 602 209 610 229 613 c 0
EndSplineSet
Validated: 33
EndChar

StartChar: w
Encoding: 119 119 85
Width: 758
VWidth: 910
Flags: HW
LayerCount: 2
Fore
SplineSet
229 613 m 0
 237 615 259 614 268 612 c 0
 282 608 292 600 294 594 c 0
 294 593 288 488 282 361 c 0
 275 234 269 131 269 130 c 2
 269 130 317 235 374 363 c 0
 454 544 478 597 481 600 c 0
 486 605 493 609 504 612 c 0
 510 614 514 613 528 613 c 0
 544 613 552 612 563 607 c 0
 574 602 577 598 577 589 c 0
 577 585 571 482 565 357 c 0
 558 232 553 131 553 130 c 2
 553 130 600 236 657 364 c 0
 723 513 763 599 764 601 c 0
 768 605 777 609 787 612 c 0
 797 615 822 615 833 612 c 0
 848 608 856 602 860 594 c 0
 861 591 861 591 859 586 c 0
 854 571 605 18 603 15 c 0
 600 11 590 6 581 3 c 0
 574 1 572 1 527 1 c 0
 481 1 479 1 473 3 c 0
 459 7 452 11 448 16 c 0
 446 19 446 21 446 26 c 0
 446 30 449 100 454 181 c 0
 459 262 462 330 462 330 c 2
 461 330 430 259 392 173 c 0
 334 44 322 17 319 14 c 0
 314 9 307 6 298 3 c 0
 291 1 289 1 244 1 c 0
 199 1 197 1 190 3 c 0
 175 7 167 12 164 19 c 0
 162 22 162 30 177 307 c 0
 185 463 193 591 194 593 c 0
 195 602 209 610 229 613 c 0
EndSplineSet
Validated: 33
EndChar

StartChar: x
Encoding: 120 120 86
Width: 485
VWidth: 910
Flags: HW
LayerCount: 2
Fore
SplineSet
238 613 m 0
 246 614 268 614 276 612 c 0
 289 609 297 603 301 598 c 0
 302 597 312 556 324 508 c 2
 347 421 l 1
 414 511 l 2
 451 561 483 601 485 603 c 0
 489 606 497 610 505 612 c 0
 510 614 514 613 528 613 c 0
 545 613 554 612 564 607 c 0
 571 603 575 600 577 595 c 0
 579 592 579 591 578 588 c 0
 577 586 531 525 475 450 c 0
 396 344 373 313 373 312 c 0
 374 310 391 245 411 167 c 2
 446 23 l 1
 444 19 l 2
 442 14 438 11 431 7 c 0
 421 2 412 1 395 1 c 0
 381 1 377 1 372 3 c 0
 357 7 349 13 346 19 c 0
 345 21 334 65 320 117 c 0
 307 169 297 211 297 211 c 2
 296 211 263 167 223 113 c 0
 182 59 148 14 147 13 c 0
 142 9 134 6 126 3 c 0
 115 0 90 0 79 3 c 0
 59 8 48 17 52 27 c 0
 53 29 102 96 162 175 c 2
 270 319 l 1
 236 455 l 2
 198 608 201 595 208 602 c 0
 214 607 223 611 238 613 c 0
EndSplineSet
Validated: 33
EndChar

StartChar: y
Encoding: 121 121 87
Width: 485
VWidth: 910
Flags: HW
LayerCount: 2
Fore
SplineSet
229 613 m 0
 237 614 259 614 267 612 c 0
 281 608 288 603 292 597 c 2
 294 594 l 1
 296 410 l 2
 297 308 298 224 298 224 c 2
 298 223 341 307 393 411 c 0
 470 562 489 600 492 602 c 0
 496 606 505 609 514 612 c 0
 519 614 523 613 537 613 c 0
 554 613 563 612 573 607 c 0
 580 603 584 600 586 595 c 0
 588 592 588 591 587 589 c 0
 586 587 498 412 390 198 c 0
 234 -106 191 -190 189 -192 c 0
 184 -196 176 -200 168 -202 c 0
 157 -205 133 -205 122 -202 c 0
 111 -199 105 -197 100 -192 c 0
 95 -187 94 -184 94 -180 c 0
 94 -179 118 -132 146 -76 c 2
 198 25 l 1
 196 309 l 2
 194 537 193 593 194 595 c 0
 198 603 211 610 229 613 c 0
EndSplineSet
Validated: 33
EndChar

StartChar: z
Encoding: 122 122 88
Width: 485
VWidth: 910
Flags: HW
LayerCount: 2
Fore
SplineSet
229 613 m 0
 232 613 306 614 394 614 c 2
 553 613 l 1
 561 612 l 2
 576 608 583 602 587 594 c 0
 588 590 588 591 585 586 c 0
 584 583 491 461 379 314 c 0
 266 167 174 47 174 47 c 2
 174 46 227 46 292 46 c 2
 411 46 l 1
 419 44 l 2
 427 42 436 38 440 34 c 0
 442 33 443 30 444 27 c 0
 446 23 446 24 445 20 c 0
 441 12 433 7 418 3 c 2
 411 1 l 1
 248 1 l 1
 87 1 l 1
 79 3 l 2
 58 8 48 18 53 28 c 0
 54 30 146 152 259 299 c 2
 465 568 l 1
 347 568 l 1
 228 569 l 1
 220 571 l 2
 205 575 196 581 194 588 c 0
 190 599 205 609 229 613 c 0
EndSplineSet
Validated: 33
EndChar

StartChar: braceleft
Encoding: 123 123 89
Width: 243
VWidth: 910
Flags: HW
LayerCount: 2
Fore
SplineSet
349 848 m 0
 351 849 361 849 370 848 c 0
 388 848 395 847 406 842 c 0
 424 833 424 819 406 810 c 0
 397 805 386 804 371 803 c 0
 359 802 357 802 352 800 c 0
 336 792 324 772 319 741 c 0
 318 733 319 725 319 705 c 0
 319 678 319 668 324 619 c 0
 329 576 329 563 330 540 c 0
 331 494 325 463 310 440 c 0
 304 431 291 418 282 412 c 2
 275 408 l 1
 279 402 l 2
 301 379 298 346 270 289 c 0
 260 268 250 249 219 198 c 0
 181 134 170 115 159 91 c 0
 145 59 142 38 147 25 c 0
 149 22 151 19 152 18 c 0
 154 17 159 16 166 16 c 0
 189 14 206 7 210 -4 c 0
 213 -10 207 -19 196 -24 c 0
 185 -29 177 -29 157 -29 c 0
 112 -29 78 -19 59 -1 c 0
 36 23 38 57 67 116 c 0
 77 136 87 154 118 205 c 0
 156 269 167 288 178 312 c 0
 192 344 195 366 190 379 c 0
 188 382 187 384 186 385 c 0
 184 386 179 387 173 387 c 0
 147 389 127 398 127 411 c 0
 127 423 146 431 176 433 c 0
 188 434 190 434 195 436 c 0
 211 444 223 464 228 495 c 0
 229 503 228 512 228 532 c 0
 228 559 228 568 223 617 c 0
 218 660 218 673 217 697 c 0
 216 734 219 759 229 782 c 0
 245 821 286 843 349 848 c 0
EndSplineSet
Validated: 33
EndChar

StartChar: bar
Encoding: 124 124 90
Width: 303
VWidth: 910
Flags: HW
LayerCount: 2
Fore
SplineSet
336 818 m 0
 344 819 365 818 374 816 c 0
 389 812 399 805 400 798 c 0
 401 796 375 688 304 408 c 0
 251 195 207 19 207 17 c 0
 203 12 194 7 181 3 c 0
 170 0 146 0 135 3 c 0
 120 7 108 14 107 21 c 0
 106 23 141 159 204 411 c 0
 257 624 301 800 301 801 c 0
 304 808 319 815 336 818 c 0
EndSplineSet
Validated: 33
EndChar

StartChar: braceright
Encoding: 125 125 91
Width: 243
VWidth: 910
Flags: HW
LayerCount: 2
Fore
SplineSet
262 848 m 0
 269 849 299 848 311 847 c 0
 332 843 350 838 364 830 c 0
 372 825 382 815 387 807 c 0
 401 780 392 741 356 674 c 0
 351 665 336 638 322 613 c 0
 286 548 273 525 264 500 c 0
 257 482 255 471 255 458 c 0
 255 448 255 446 257 441 c 0
 259 438 260 436 261 435 c 0
 263 434 268 433 275 433 c 0
 301 431 320 423 320 411 c 0
 320 398 302 389 273 387 c 0
 260 386 258 386 253 383 c 0
 238 376 227 360 221 335 c 0
 217 318 217 307 217 274 c 0
 217 245 216 238 221 175 c 0
 223 154 223 101 221 89 c 0
 217 61 210 39 199 23 c 0
 194 15 181 1 172 -4 c 0
 150 -19 124 -26 89 -29 c 0
 59 -32 35 -27 24 -17 c 0
 16 -10 16 -3 24 4 c 0
 32 11 46 15 66 16 c 0
 78 17 80 17 85 20 c 0
 100 27 111 43 117 68 c 0
 121 85 121 96 121 129 c 0
 121 158 122 165 117 228 c 0
 115 249 115 302 117 314 c 0
 121 342 127 364 138 380 c 0
 143 388 158 402 166 407 c 2
 173 411 l 1
 167 417 l 2
 149 437 149 466 166 510 c 0
 176 537 188 559 224 624 c 0
 260 689 273 712 282 737 c 0
 289 754 291 765 291 779 c 0
 291 788 291 790 289 795 c 0
 287 798 286 800 285 801 c 0
 283 802 278 803 272 803 c 0
 253 804 239 809 232 816 c 0
 224 823 224 829 232 836 c 0
 237 841 247 846 262 848 c 0
EndSplineSet
Validated: 33
EndChar

StartChar: asciitilde
Encoding: 126 126 92
Width: 607
VWidth: 910
Flags: HW
LayerCount: 2
Fore
SplineSet
262 421 m 0
 270 422 290 422 298 421 c 0
 333 417 361 406 382 387 c 0
 399 371 412 351 430 312 c 0
 450 269 464 250 480 241 c 0
 484 238 483 238 488 240 c 0
 514 249 539 275 551 304 c 0
 556 315 558 318 566 323 c 0
 577 328 586 330 603 330 c 0
 614 330 619 330 624 329 c 0
 642 324 654 316 654 308 c 0
 654 306 652 299 650 294 c 0
 630 245 581 208 523 197 c 0
 474 187 423 194 390 218 c 0
 382 223 371 235 365 243 c 0
 353 258 345 272 331 301 c 0
 320 325 314 337 307 348 c 0
 300 358 287 370 281 373 c 2
 278 376 l 1
 273 374 l 2
 256 368 237 353 224 336 c 0
 219 329 212 314 208 306 c 0
 205 297 195 291 180 287 c 0
 169 284 145 284 135 287 c 0
 117 292 107 299 107 307 c 0
 107 312 112 323 117 333 c 0
 138 373 179 403 227 416 c 0
 237 419 251 420 262 421 c 0
EndSplineSet
Validated: 33
EndChar

StartChar: degree
Encoding: 176 176 93
Width: 425
VWidth: 910
Flags: HW
LayerCount: 2
Fore
SplineSet
390 818 m 0
 401 819 431 818 443 817 c 0
 464 813 486 807 502 798 c 0
 539 776 560 740 562 694 c 0
 563 668 557 642 545 614 c 0
 531 581 507 549 477 525 c 0
 447 500 409 485 370 479 c 0
 355 477 322 477 307 479 c 0
 261 486 228 504 208 534 c 0
 195 554 189 577 188 603 c 0
 187 628 192 654 204 682 c 0
 209 695 215 704 224 718 c 0
 262 775 322 811 390 818 c 0
421 769 m 0
 411 774 405 773 387 765 c 0
 349 746 314 707 299 661 c 0
 282 612 288 563 314 536 c 0
 321 530 332 523 337 523 c 0
 347 523 365 532 380 542 c 0
 438 582 472 659 457 719 c 0
 451 742 436 762 421 769 c 0
EndSplineSet
Validated: 33
EndChar

StartChar: quotesingle
Encoding: 39 39 94
Width: 121
VWidth: 910
Flags: HW
LayerCount: 2
Fore
SplineSet
245 818 m 0
 253 819 274 818 283 816 c 0
 301 811 312 803 309 794 c 0
 309 792 305 785 300 779 c 0
 277 748 261 715 252 682 c 0
 248 670 248 668 244 664 c 0
 240 660 233 657 223 654 c 0
 218 652 214 653 199 653 c 0
 184 653 180 652 175 654 c 0
 160 658 150 666 148 673 c 0
 147 680 159 715 172 741 c 0
 187 770 210 805 219 810 c 0
 224 814 237 817 245 818 c 0
EndSplineSet
Validated: 33
EndChar

StartChar: grave
Encoding: 96 96 95
Width: 152
VWidth: 910
Flags: HW
LayerCount: 2
Fore
SplineSet
260 818 m 0
 263 818 272 819 279 818 c 0
 294 818 302 817 311 812 c 0
 322 807 339 788 347 771 c 0
 361 744 364 709 356 675 c 0
 355 670 354 668 351 665 c 0
 346 660 340 657 330 654 c 0
 325 652 321 653 306 653 c 0
 291 653 286 652 281 654 c 0
 271 657 264 660 259 665 c 0
 254 670 254 674 256 682 c 0
 265 720 256 757 233 782 c 0
 229 786 227 789 226 791 c 0
 225 794 225 799 226 802 c 0
 230 809 244 815 260 818 c 0
EndSplineSet
Validated: 33
EndChar
